<?xml version="1.0" encoding="us-ascii" standalone="no"?><svg xmlns="http://www.w3.org/2000/svg" xmlns:xlink="http://www.w3.org/1999/xlink" contentStyleType="text/css" height="2381px" preserveAspectRatio="none" style="width:2166px;height:2381px;background:#FFFFFF;" version="1.1" viewBox="0 0 2166 2381" width="2166px" zoomAndPan="magnify"><defs/><g><text fill="#000000" font-family="sans-serif" font-size="14" font-weight="bold" lengthAdjust="spacing" textLength="349" x="901.5" y="25.1074">Keyple - keyple-plugin-java-api - 2.1.+ (2023-04-12)</text><!--cluster api--><g id="cluster_api"><path d="M8.5,45.6348 L222.5,45.6348 A3.75,3.75 0 0 1 225,48.1348 L232,70.2559 L2156.5,70.2559 A2.5,2.5 0 0 1 2159,72.7559 L2159,2372.1348 A2.5,2.5 0 0 1 2156.5,2374.6348 L8.5,2374.6348 A2.5,2.5 0 0 1 6,2372.1348 L6,48.1348 A2.5,2.5 0 0 1 8.5,45.6348 " fill="#F8F9F9" style="stroke:#000000;stroke-width:1.5;"/><line style="stroke:#000000;stroke-width:1.5;" x1="6" x2="232" y1="70.2559" y2="70.2559"/><text fill="#000000" font-family="sans-serif" font-size="14" font-weight="bold" lengthAdjust="spacing" textLength="213" x="10" y="62.7422">org.eclipse.keyple.core.plugin</text></g><!--cluster spi--><g id="cluster_spi"><path d="M32.5,283.6348 L54.5,283.6348 A3.75,3.75 0 0 1 57,286.1348 L64,308.2559 L1555.5,308.2559 A2.5,2.5 0 0 1 1558,310.7559 L1558,2224.1348 A2.5,2.5 0 0 1 1555.5,2226.6348 L32.5,2226.6348 A2.5,2.5 0 0 1 30,2224.1348 L30,286.1348 A2.5,2.5 0 0 1 32.5,283.6348 " fill="#F2F3F4" style="stroke:#000000;stroke-width:1.5;"/><line style="stroke:#000000;stroke-width:1.5;" x1="30" x2="64" y1="308.2559" y2="308.2559"/><text fill="#000000" font-family="sans-serif" font-size="14" font-weight="bold" lengthAdjust="spacing" textLength="21" x="34" y="300.7422">spi</text></g><!--cluster reader--><g id="cluster_reader"><path d="M64.5,926.6348 L112.5,926.6348 A3.75,3.75 0 0 1 115,929.1348 L122,951.2559 L1523.5,951.2559 A2.5,2.5 0 0 1 1526,953.7559 L1526,2192.1348 A2.5,2.5 0 0 1 1523.5,2194.6348 L64.5,2194.6348 A2.5,2.5 0 0 1 62,2192.1348 L62,929.1348 A2.5,2.5 0 0 1 64.5,926.6348 " fill="#E5E7E9" style="stroke:#000000;stroke-width:1.5;"/><line style="stroke:#000000;stroke-width:1.5;" x1="62" x2="122" y1="951.2559" y2="951.2559"/><text fill="#000000" font-family="sans-serif" font-size="14" font-weight="bold" lengthAdjust="spacing" textLength="47" x="66" y="943.7422">reader</text></g><!--cluster observable--><g id="cluster_observable"><path d="M96.5,1454.6348 L177.5,1454.6348 A3.75,3.75 0 0 1 180,1457.1348 L187,1479.2559 L1483.5,1479.2559 A2.5,2.5 0 0 1 1486,1481.7559 L1486,2160.1348 A2.5,2.5 0 0 1 1483.5,2162.6348 L96.5,2162.6348 A2.5,2.5 0 0 1 94,2160.1348 L94,1457.1348 A2.5,2.5 0 0 1 96.5,1454.6348 " fill="#D7DBDD" style="stroke:#000000;stroke-width:1.5;"/><line style="stroke:#000000;stroke-width:1.5;" x1="94" x2="187" y1="1479.2559" y2="1479.2559"/><text fill="#000000" font-family="sans-serif" font-size="14" font-weight="bold" lengthAdjust="spacing" textLength="80" x="98" y="1471.7422">observable</text></g><!--cluster state--><g id="cluster_state"><path d="M128.5,1631.6348 L164.5,1631.6348 A3.75,3.75 0 0 1 167,1634.1348 L174,1656.2559 L1451.5,1656.2559 A2.5,2.5 0 0 1 1454,1658.7559 L1454,2128.1348 A2.5,2.5 0 0 1 1451.5,2130.6348 L128.5,2130.6348 A2.5,2.5 0 0 1 126,2128.1348 L126,1634.1348 A2.5,2.5 0 0 1 128.5,1631.6348 " fill="#CACFD2" style="stroke:#000000;stroke-width:1.5;"/><line style="stroke:#000000;stroke-width:1.5;" x1="126" x2="174" y1="1656.2559" y2="1656.2559"/><text fill="#000000" font-family="sans-serif" font-size="14" font-weight="bold" lengthAdjust="spacing" textLength="35" x="130" y="1648.7422">state</text></g><!--cluster processing--><g id="cluster_processing"><path d="M1026.5,1684.6348 L1106.5,1684.6348 A3.75,3.75 0 0 1 1109,1687.1348 L1116,1709.2559 L1419.5,1709.2559 A2.5,2.5 0 0 1 1422,1711.7559 L1422,1929.1348 A2.5,2.5 0 0 1 1419.5,1931.6348 L1026.5,1931.6348 A2.5,2.5 0 0 1 1024,1929.1348 L1024,1687.1348 A2.5,2.5 0 0 1 1026.5,1684.6348 " fill="#BDC3C7" style="stroke:#000000;stroke-width:1.5;"/><line style="stroke:#000000;stroke-width:1.5;" x1="1024" x2="1116" y1="1709.2559" y2="1709.2559"/><text fill="#000000" font-family="sans-serif" font-size="14" font-weight="bold" lengthAdjust="spacing" textLength="79" x="1028" y="1701.7422">processing</text></g><!--cluster insertion--><g id="cluster_insertion"><path d="M168.5,1684.6348 L232.5,1684.6348 A3.75,3.75 0 0 1 235,1687.1348 L242,1709.2559 L567.5,1709.2559 A2.5,2.5 0 0 1 570,1711.7559 L570,2096.1348 A2.5,2.5 0 0 1 567.5,2098.6348 L168.5,2098.6348 A2.5,2.5 0 0 1 166,2096.1348 L166,1687.1348 A2.5,2.5 0 0 1 168.5,1684.6348 " fill="#BDC3C7" style="stroke:#000000;stroke-width:1.5;"/><line style="stroke:#000000;stroke-width:1.5;" x1="166" x2="242" y1="1709.2559" y2="1709.2559"/><text fill="#000000" font-family="sans-serif" font-size="14" font-weight="bold" lengthAdjust="spacing" textLength="63" x="170" y="1701.7422">insertion</text></g><!--cluster removal--><g id="cluster_removal"><path d="M596.5,1684.6348 L654.5,1684.6348 A3.75,3.75 0 0 1 657,1687.1348 L664,1709.2559 L997.5,1709.2559 A2.5,2.5 0 0 1 1000,1711.7559 L1000,2096.1348 A2.5,2.5 0 0 1 997.5,2098.6348 L596.5,2098.6348 A2.5,2.5 0 0 1 594,2096.1348 L594,1687.1348 A2.5,2.5 0 0 1 596.5,1684.6348 " fill="#BDC3C7" style="stroke:#000000;stroke-width:1.5;"/><line style="stroke:#000000;stroke-width:1.5;" x1="594" x2="664" y1="1709.2559" y2="1709.2559"/><text fill="#000000" font-family="sans-serif" font-size="14" font-weight="bold" lengthAdjust="spacing" textLength="57" x="598" y="1701.7422">removal</text></g><!--class ApiProperties--><g id="elem_ApiProperties"><rect codeLine="54" fill="#FEFECE" height="66.6211" id="ApiProperties" rx="2.5" ry="2.5" style="stroke:#D4AC0D;stroke-width:2.0;" width="201" x="537.5" y="108.6348"/><ellipse cx="552.5" cy="124.6348" fill="#ADD1B2" rx="11" ry="11" style="stroke:#181818;stroke-width:1.0;"/><path d="M555.2656,120.5098 Q555.4219,120.291 555.6094,120.1816 Q555.7969,120.0723 556.0156,120.0723 Q556.3906,120.0723 556.625,120.3379 Q556.8594,120.5879 556.8594,121.1973 L556.8594,122.6504 Q556.8594,123.2598 556.625,123.5254 Q556.3906,123.791 556.0156,123.791 Q555.6719,123.791 555.4688,123.5879 Q555.2656,123.4004 555.1563,122.8848 Q555.1094,122.5254 554.9219,122.3379 Q554.5938,121.9629 553.9844,121.7441 Q553.375,121.5254 552.75,121.5254 Q551.9844,121.5254 551.3438,121.8535 Q550.7188,122.1816 550.2188,122.9316 Q549.7344,123.6816 549.7344,124.7129 L549.7344,125.8066 Q549.7344,127.041 550.625,127.8691 Q551.5156,128.6816 553.1094,128.6816 Q554.0469,128.6816 554.7031,128.4316 Q555.0938,128.2754 555.5156,127.8379 Q555.7813,127.5723 555.9219,127.4941 Q556.0781,127.416 556.2813,127.416 Q556.6094,127.416 556.8594,127.6816 Q557.125,127.9316 557.125,128.2754 Q557.125,128.6191 556.7813,129.0254 Q556.2813,129.6035 555.4844,129.9316 Q554.4063,130.3848 553.1094,130.3848 Q551.5938,130.3848 550.3906,129.7598 Q549.4063,129.2598 548.7188,128.1973 Q548.0313,127.1191 548.0313,125.8379 L548.0313,124.6816 Q548.0313,123.3535 548.6406,122.2129 Q549.2656,121.0566 550.3594,120.4473 Q551.4531,119.8223 552.6875,119.8223 Q553.4219,119.8223 554.0625,119.9941 Q554.7188,120.1504 555.2656,120.5098 Z " fill="#000000"/><ellipse cx="571.5" cy="124.1348" fill="#84BE84" rx="3" ry="3" style="stroke:#038048;stroke-width:1.0;"/><text fill="#000000" font-family="sans-serif" font-size="14" font-weight="bold" lengthAdjust="spacing" textLength="30" x="577.5" y="130.4316">final</text><text fill="#000000" font-family="sans-serif" font-size="14" lengthAdjust="spacing" textLength="124" x="611.5" y="130.4316">PluginApiProperties</text><line style="stroke:#D4AC0D;stroke-width:2.0;" x1="538.5" x2="737.5" y1="140.6348" y2="140.6348"/><ellipse cx="548.5" cy="155.4453" fill="none" rx="3" ry="3" style="stroke:#038048;stroke-width:1.0;"/><text fill="#000000" font-family="sans-serif" font-size="14" font-weight="bold" lengthAdjust="spacing" text-decoration="underline" textLength="30" x="557.5" y="159.7422">final</text><text fill="#000000" font-family="sans-serif" font-size="14" lengthAdjust="spacing" text-decoration="underline" textLength="101" x="591.5" y="159.7422">String VERSION</text><line style="stroke:#D4AC0D;stroke-width:2.0;" x1="538.5" x2="737.5" y1="167.2559" y2="167.2559"/></g><!--class AutonomousObservablePluginApi--><g id="elem_AutonomousObservablePluginApi"><rect codeLine="57" fill="#FEFECE" height="85.2422" id="AutonomousObservablePluginApi" rx="2.5" ry="2.5" style="stroke:#D4AC0D;stroke-width:2.0;" width="382" x="1574" y="557.6348"/><ellipse cx="1650.25" cy="573.6348" fill="#B4A7E5" rx="11" ry="11" style="stroke:#181818;stroke-width:1.0;"/><path d="M1651.2031,570.2754 L1651.2031,576.9316 L1652.9219,576.9316 Q1653.5313,576.9316 1653.7969,577.166 Q1654.0625,577.4004 1654.0625,577.791 Q1654.0625,578.166 1653.7969,578.4004 Q1653.5313,578.6348 1652.9219,578.6348 L1647.7813,578.6348 Q1647.1719,578.6348 1646.9063,578.4004 Q1646.6406,578.166 1646.6406,577.7754 Q1646.6406,577.4004 1646.9063,577.166 Q1647.1719,576.9316 1647.7813,576.9316 L1649.5,576.9316 L1649.5,570.2754 L1647.7813,570.2754 Q1647.1719,570.2754 1646.9063,570.041 Q1646.6406,569.8066 1646.6406,569.416 Q1646.6406,569.041 1646.9063,568.8066 Q1647.1719,568.5723 1647.7813,568.5723 L1652.9219,568.5723 Q1653.5313,568.5723 1653.7969,568.8066 Q1654.0625,569.041 1654.0625,569.416 Q1654.0625,569.8066 1653.7969,570.041 Q1653.5313,570.2754 1652.9219,570.2754 L1651.2031,570.2754 Z " fill="#000000"/><ellipse cx="1675.75" cy="573.1348" fill="#84BE84" rx="3" ry="3" style="stroke:#038048;stroke-width:1.0;"/><text fill="#000000" font-family="sans-serif" font-size="14" font-style="italic" lengthAdjust="spacing" textLength="210" x="1681.75" y="579.4316">AutonomousObservablePluginApi</text><line style="stroke:#D4AC0D;stroke-width:2.0;" x1="1575" x2="1955" y1="589.6348" y2="589.6348"/><line style="stroke:#D4AC0D;stroke-width:2.0;" x1="1575" x2="1955" y1="597.6348" y2="597.6348"/><ellipse cx="1585" cy="612.4453" fill="#84BE84" rx="3" ry="3" style="stroke:#038048;stroke-width:1.0;"/><text fill="#000000" font-family="sans-serif" font-size="14" lengthAdjust="spacing" textLength="333" x="1594" y="616.7422">void onReaderConnected (Set&lt;ReaderSpi&gt; readers)</text><ellipse cx="1585" cy="631.0664" fill="#84BE84" rx="3" ry="3" style="stroke:#038048;stroke-width:1.0;"/><text fill="#000000" font-family="sans-serif" font-size="14" lengthAdjust="spacing" textLength="356" x="1594" y="635.3633">void onReaderDisconnected (Set&lt;String&gt; readerNames)</text></g><!--class WaitForCardInsertionAutonomousReaderApi--><g id="elem_WaitForCardInsertionAutonomousReaderApi"><rect codeLine="61" fill="#FEFECE" height="66.6211" id="WaitForCardInsertionAutonomousReaderApi" rx="2.5" ry="2.5" style="stroke:#D4AC0D;stroke-width:2.0;" width="326" x="205" y="2291.6348"/><ellipse cx="220" cy="2307.6348" fill="#B4A7E5" rx="11" ry="11" style="stroke:#181818;stroke-width:1.0;"/><path d="M220.9531,2304.2754 L220.9531,2310.9316 L222.6719,2310.9316 Q223.2813,2310.9316 223.5469,2311.166 Q223.8125,2311.4004 223.8125,2311.791 Q223.8125,2312.166 223.5469,2312.4004 Q223.2813,2312.6348 222.6719,2312.6348 L217.5313,2312.6348 Q216.9219,2312.6348 216.6563,2312.4004 Q216.3906,2312.166 216.3906,2311.7754 Q216.3906,2311.4004 216.6563,2311.166 Q216.9219,2310.9316 217.5313,2310.9316 L219.25,2310.9316 L219.25,2304.2754 L217.5313,2304.2754 Q216.9219,2304.2754 216.6563,2304.041 Q216.3906,2303.8066 216.3906,2303.416 Q216.3906,2303.041 216.6563,2302.8066 Q216.9219,2302.5723 217.5313,2302.5723 L222.6719,2302.5723 Q223.2813,2302.5723 223.5469,2302.8066 Q223.8125,2303.041 223.8125,2303.416 Q223.8125,2303.8066 223.5469,2304.041 Q223.2813,2304.2754 222.6719,2304.2754 L220.9531,2304.2754 Z " fill="#000000"/><ellipse cx="239" cy="2307.1348" fill="#84BE84" rx="3" ry="3" style="stroke:#038048;stroke-width:1.0;"/><text fill="#000000" font-family="sans-serif" font-size="14" font-style="italic" lengthAdjust="spacing" textLength="283" x="245" y="2313.4316">WaitForCardInsertionAutonomousReaderApi</text><line style="stroke:#D4AC0D;stroke-width:2.0;" x1="206" x2="530" y1="2323.6348" y2="2323.6348"/><line style="stroke:#D4AC0D;stroke-width:2.0;" x1="206" x2="530" y1="2331.6348" y2="2331.6348"/><ellipse cx="216" cy="2346.4453" fill="#84BE84" rx="3" ry="3" style="stroke:#038048;stroke-width:1.0;"/><text fill="#000000" font-family="sans-serif" font-size="14" lengthAdjust="spacing" textLength="142" x="225" y="2350.7422">void onCardInserted ()</text></g><!--class WaitForCardRemovalAutonomousReaderApi--><g id="elem_WaitForCardRemovalAutonomousReaderApi"><rect codeLine="64" fill="#FEFECE" height="66.6211" id="WaitForCardRemovalAutonomousReaderApi" rx="2.5" ry="2.5" style="stroke:#D4AC0D;stroke-width:2.0;" width="325" x="634.5" y="2291.6348"/><ellipse cx="649.5" cy="2307.6348" fill="#B4A7E5" rx="11" ry="11" style="stroke:#181818;stroke-width:1.0;"/><path d="M650.4531,2304.2754 L650.4531,2310.9316 L652.1719,2310.9316 Q652.7813,2310.9316 653.0469,2311.166 Q653.3125,2311.4004 653.3125,2311.791 Q653.3125,2312.166 653.0469,2312.4004 Q652.7813,2312.6348 652.1719,2312.6348 L647.0313,2312.6348 Q646.4219,2312.6348 646.1563,2312.4004 Q645.8906,2312.166 645.8906,2311.7754 Q645.8906,2311.4004 646.1563,2311.166 Q646.4219,2310.9316 647.0313,2310.9316 L648.75,2310.9316 L648.75,2304.2754 L647.0313,2304.2754 Q646.4219,2304.2754 646.1563,2304.041 Q645.8906,2303.8066 645.8906,2303.416 Q645.8906,2303.041 646.1563,2302.8066 Q646.4219,2302.5723 647.0313,2302.5723 L652.1719,2302.5723 Q652.7813,2302.5723 653.0469,2302.8066 Q653.3125,2303.041 653.3125,2303.416 Q653.3125,2303.8066 653.0469,2304.041 Q652.7813,2304.2754 652.1719,2304.2754 L650.4531,2304.2754 Z " fill="#000000"/><ellipse cx="668.5" cy="2307.1348" fill="#84BE84" rx="3" ry="3" style="stroke:#038048;stroke-width:1.0;"/><text fill="#000000" font-family="sans-serif" font-size="14" font-style="italic" lengthAdjust="spacing" textLength="282" x="674.5" y="2313.4316">WaitForCardRemovalAutonomousReaderApi</text><line style="stroke:#D4AC0D;stroke-width:2.0;" x1="635.5" x2="958.5" y1="2323.6348" y2="2323.6348"/><line style="stroke:#D4AC0D;stroke-width:2.0;" x1="635.5" x2="958.5" y1="2331.6348" y2="2331.6348"/><ellipse cx="645.5" cy="2346.4453" fill="#84BE84" rx="3" ry="3" style="stroke:#038048;stroke-width:1.0;"/><text fill="#000000" font-family="sans-serif" font-size="14" lengthAdjust="spacing" textLength="151" x="654.5" y="2350.7422">void onCardRemoved ()</text></g><!--class PluginIOException--><g id="elem_PluginIOException"><rect codeLine="67" fill="#FEFECE" height="119.1055" id="PluginIOException" rx="2.5" ry="2.5" style="stroke:#D4AC0D;stroke-width:2.0;" width="252" x="1570" y="82.6348"/><ellipse cx="1612.45" cy="106.2559" fill="#ADD1B2" rx="11" ry="11" style="stroke:#181818;stroke-width:1.0;"/><path d="M1615.2156,102.1309 Q1615.3719,101.9121 1615.5594,101.8027 Q1615.7469,101.6934 1615.9656,101.6934 Q1616.3406,101.6934 1616.575,101.959 Q1616.8094,102.209 1616.8094,102.8184 L1616.8094,104.2715 Q1616.8094,104.8809 1616.575,105.1465 Q1616.3406,105.4121 1615.9656,105.4121 Q1615.6219,105.4121 1615.4188,105.209 Q1615.2156,105.0215 1615.1063,104.5059 Q1615.0594,104.1465 1614.8719,103.959 Q1614.5438,103.584 1613.9344,103.3652 Q1613.325,103.1465 1612.7,103.1465 Q1611.9344,103.1465 1611.2938,103.4746 Q1610.6688,103.8027 1610.1688,104.5527 Q1609.6844,105.3027 1609.6844,106.334 L1609.6844,107.4277 Q1609.6844,108.6621 1610.575,109.4902 Q1611.4656,110.3027 1613.0594,110.3027 Q1613.9969,110.3027 1614.6531,110.0527 Q1615.0438,109.8965 1615.4656,109.459 Q1615.7313,109.1934 1615.8719,109.1152 Q1616.0281,109.0371 1616.2313,109.0371 Q1616.5594,109.0371 1616.8094,109.3027 Q1617.075,109.5527 1617.075,109.8965 Q1617.075,110.2402 1616.7313,110.6465 Q1616.2313,111.2246 1615.4344,111.5527 Q1614.3563,112.0059 1613.0594,112.0059 Q1611.5438,112.0059 1610.3406,111.3809 Q1609.3563,110.8809 1608.6688,109.8184 Q1607.9813,108.7402 1607.9813,107.459 L1607.9813,106.3027 Q1607.9813,104.9746 1608.5906,103.834 Q1609.2156,102.6777 1610.3094,102.0684 Q1611.4031,101.4434 1612.6375,101.4434 Q1613.3719,101.4434 1614.0125,101.6152 Q1614.6688,101.7715 1615.2156,102.1309 Z " fill="#000000"/><ellipse cx="1637.55" cy="105.7559" fill="#84BE84" rx="3" ry="3" style="stroke:#038048;stroke-width:1.0;"/><text fill="#000000" font-family="sans-serif" font-size="14" lengthAdjust="spacing" textLength="77" x="1679.05" y="102.7422">&#171;Exception&#187;</text><text fill="#000000" font-family="sans-serif" font-size="14" font-weight="bold" lengthAdjust="spacing" textLength="30" x="1643.55" y="121.3633">final</text><text fill="#000000" font-family="sans-serif" font-size="14" lengthAdjust="spacing" textLength="114" x="1677.55" y="121.3633">PluginIOException</text><line style="stroke:#D4AC0D;stroke-width:2.0;" x1="1571" x2="1821" y1="129.877" y2="129.877"/><line style="stroke:#D4AC0D;stroke-width:2.0;" x1="1571" x2="1821" y1="137.877" y2="137.877"/><ellipse cx="1581" cy="152.6875" fill="#84BE84" rx="3" ry="3" style="stroke:#038048;stroke-width:1.0;"/><text fill="#000000" font-family="sans-serif" font-size="14" lengthAdjust="spacing" textLength="226" x="1590" y="156.9844">PluginIOException (String message)</text><ellipse cx="1581" cy="171.3086" fill="#84BE84" rx="3" ry="3" style="stroke:#038048;stroke-width:1.0;"/><text fill="#000000" font-family="sans-serif" font-size="14" lengthAdjust="spacing" textLength="225" x="1590" y="175.6055">PluginIOException (String message,</text><text fill="#000000" font-family="sans-serif" font-size="14" lengthAdjust="spacing" textLength="113" x="1622" y="194.2266">Throwable cause)</text></g><!--class ReaderIOException--><g id="elem_ReaderIOException"><rect codeLine="72" fill="#FEFECE" height="119.1055" id="ReaderIOException" rx="2.5" ry="2.5" style="stroke:#D4AC0D;stroke-width:2.0;" width="260" x="1857" y="82.6348"/><ellipse cx="1899.45" cy="106.2559" fill="#ADD1B2" rx="11" ry="11" style="stroke:#181818;stroke-width:1.0;"/><path d="M1902.2156,102.1309 Q1902.3719,101.9121 1902.5594,101.8027 Q1902.7469,101.6934 1902.9656,101.6934 Q1903.3406,101.6934 1903.575,101.959 Q1903.8094,102.209 1903.8094,102.8184 L1903.8094,104.2715 Q1903.8094,104.8809 1903.575,105.1465 Q1903.3406,105.4121 1902.9656,105.4121 Q1902.6219,105.4121 1902.4188,105.209 Q1902.2156,105.0215 1902.1063,104.5059 Q1902.0594,104.1465 1901.8719,103.959 Q1901.5438,103.584 1900.9344,103.3652 Q1900.325,103.1465 1899.7,103.1465 Q1898.9344,103.1465 1898.2938,103.4746 Q1897.6688,103.8027 1897.1688,104.5527 Q1896.6844,105.3027 1896.6844,106.334 L1896.6844,107.4277 Q1896.6844,108.6621 1897.575,109.4902 Q1898.4656,110.3027 1900.0594,110.3027 Q1900.9969,110.3027 1901.6531,110.0527 Q1902.0438,109.8965 1902.4656,109.459 Q1902.7313,109.1934 1902.8719,109.1152 Q1903.0281,109.0371 1903.2313,109.0371 Q1903.5594,109.0371 1903.8094,109.3027 Q1904.075,109.5527 1904.075,109.8965 Q1904.075,110.2402 1903.7313,110.6465 Q1903.2313,111.2246 1902.4344,111.5527 Q1901.3563,112.0059 1900.0594,112.0059 Q1898.5438,112.0059 1897.3406,111.3809 Q1896.3563,110.8809 1895.6688,109.8184 Q1894.9813,108.7402 1894.9813,107.459 L1894.9813,106.3027 Q1894.9813,104.9746 1895.5906,103.834 Q1896.2156,102.6777 1897.3094,102.0684 Q1898.4031,101.4434 1899.6375,101.4434 Q1900.3719,101.4434 1901.0125,101.6152 Q1901.6688,101.7715 1902.2156,102.1309 Z " fill="#000000"/><ellipse cx="1924.55" cy="105.7559" fill="#84BE84" rx="3" ry="3" style="stroke:#038048;stroke-width:1.0;"/><text fill="#000000" font-family="sans-serif" font-size="14" lengthAdjust="spacing" textLength="77" x="1970.05" y="102.7422">&#171;Exception&#187;</text><text fill="#000000" font-family="sans-serif" font-size="14" font-weight="bold" lengthAdjust="spacing" textLength="30" x="1930.55" y="121.3633">final</text><text fill="#000000" font-family="sans-serif" font-size="14" lengthAdjust="spacing" textLength="122" x="1964.55" y="121.3633">ReaderIOException</text><line style="stroke:#D4AC0D;stroke-width:2.0;" x1="1858" x2="2116" y1="129.877" y2="129.877"/><line style="stroke:#D4AC0D;stroke-width:2.0;" x1="1858" x2="2116" y1="137.877" y2="137.877"/><ellipse cx="1868" cy="152.6875" fill="#84BE84" rx="3" ry="3" style="stroke:#038048;stroke-width:1.0;"/><text fill="#000000" font-family="sans-serif" font-size="14" lengthAdjust="spacing" textLength="234" x="1877" y="156.9844">ReaderIOException (String message)</text><ellipse cx="1868" cy="171.3086" fill="#84BE84" rx="3" ry="3" style="stroke:#038048;stroke-width:1.0;"/><text fill="#000000" font-family="sans-serif" font-size="14" lengthAdjust="spacing" textLength="233" x="1877" y="175.6055">ReaderIOException (String message,</text><text fill="#000000" font-family="sans-serif" font-size="14" lengthAdjust="spacing" textLength="113" x="1909" y="194.2266">Throwable cause)</text></g><!--class CardIOException--><g id="elem_CardIOException"><rect codeLine="77" fill="#FEFECE" height="119.1055" id="CardIOException" rx="2.5" ry="2.5" style="stroke:#D4AC0D;stroke-width:2.0;" width="244" x="1574" y="330.1348"/><ellipse cx="1616.45" cy="353.7559" fill="#ADD1B2" rx="11" ry="11" style="stroke:#181818;stroke-width:1.0;"/><path d="M1619.2156,349.6309 Q1619.3719,349.4121 1619.5594,349.3027 Q1619.7469,349.1934 1619.9656,349.1934 Q1620.3406,349.1934 1620.575,349.459 Q1620.8094,349.709 1620.8094,350.3184 L1620.8094,351.7715 Q1620.8094,352.3809 1620.575,352.6465 Q1620.3406,352.9121 1619.9656,352.9121 Q1619.6219,352.9121 1619.4188,352.709 Q1619.2156,352.5215 1619.1063,352.0059 Q1619.0594,351.6465 1618.8719,351.459 Q1618.5438,351.084 1617.9344,350.8652 Q1617.325,350.6465 1616.7,350.6465 Q1615.9344,350.6465 1615.2938,350.9746 Q1614.6688,351.3027 1614.1688,352.0527 Q1613.6844,352.8027 1613.6844,353.834 L1613.6844,354.9277 Q1613.6844,356.1621 1614.575,356.9902 Q1615.4656,357.8027 1617.0594,357.8027 Q1617.9969,357.8027 1618.6531,357.5527 Q1619.0438,357.3965 1619.4656,356.959 Q1619.7313,356.6934 1619.8719,356.6152 Q1620.0281,356.5371 1620.2313,356.5371 Q1620.5594,356.5371 1620.8094,356.8027 Q1621.075,357.0527 1621.075,357.3965 Q1621.075,357.7402 1620.7313,358.1465 Q1620.2313,358.7246 1619.4344,359.0527 Q1618.3563,359.5059 1617.0594,359.5059 Q1615.5438,359.5059 1614.3406,358.8809 Q1613.3563,358.3809 1612.6688,357.3184 Q1611.9813,356.2402 1611.9813,354.959 L1611.9813,353.8027 Q1611.9813,352.4746 1612.5906,351.334 Q1613.2156,350.1777 1614.3094,349.5684 Q1615.4031,348.9434 1616.6375,348.9434 Q1617.3719,348.9434 1618.0125,349.1152 Q1618.6688,349.2715 1619.2156,349.6309 Z " fill="#000000"/><ellipse cx="1641.55" cy="353.2559" fill="#84BE84" rx="3" ry="3" style="stroke:#038048;stroke-width:1.0;"/><text fill="#000000" font-family="sans-serif" font-size="14" lengthAdjust="spacing" textLength="77" x="1679.05" y="350.2422">&#171;Exception&#187;</text><text fill="#000000" font-family="sans-serif" font-size="14" font-weight="bold" lengthAdjust="spacing" textLength="30" x="1647.55" y="368.8633">final</text><text fill="#000000" font-family="sans-serif" font-size="14" lengthAdjust="spacing" textLength="106" x="1681.55" y="368.8633">CardIOException</text><line style="stroke:#D4AC0D;stroke-width:2.0;" x1="1575" x2="1817" y1="377.377" y2="377.377"/><line style="stroke:#D4AC0D;stroke-width:2.0;" x1="1575" x2="1817" y1="385.377" y2="385.377"/><ellipse cx="1585" cy="400.1875" fill="#84BE84" rx="3" ry="3" style="stroke:#038048;stroke-width:1.0;"/><text fill="#000000" font-family="sans-serif" font-size="14" lengthAdjust="spacing" textLength="218" x="1594" y="404.4844">CardIOException (String message)</text><ellipse cx="1585" cy="418.8086" fill="#84BE84" rx="3" ry="3" style="stroke:#038048;stroke-width:1.0;"/><text fill="#000000" font-family="sans-serif" font-size="14" lengthAdjust="spacing" textLength="217" x="1594" y="423.1055">CardIOException (String message,</text><text fill="#000000" font-family="sans-serif" font-size="14" lengthAdjust="spacing" textLength="113" x="1626" y="441.7266">Throwable cause)</text></g><!--class TaskCanceledException--><g id="elem_TaskCanceledException"><rect codeLine="82" fill="#FEFECE" height="81.8633" id="TaskCanceledException" rx="2.5" ry="2.5" style="stroke:#D4AC0D;stroke-width:2.0;" width="290" x="1853" y="348.6348"/><ellipse cx="1895.45" cy="372.2559" fill="#ADD1B2" rx="11" ry="11" style="stroke:#181818;stroke-width:1.0;"/><path d="M1898.2156,368.1309 Q1898.3719,367.9121 1898.5594,367.8027 Q1898.7469,367.6934 1898.9656,367.6934 Q1899.3406,367.6934 1899.575,367.959 Q1899.8094,368.209 1899.8094,368.8184 L1899.8094,370.2715 Q1899.8094,370.8809 1899.575,371.1465 Q1899.3406,371.4121 1898.9656,371.4121 Q1898.6219,371.4121 1898.4188,371.209 Q1898.2156,371.0215 1898.1063,370.5059 Q1898.0594,370.1465 1897.8719,369.959 Q1897.5438,369.584 1896.9344,369.3652 Q1896.325,369.1465 1895.7,369.1465 Q1894.9344,369.1465 1894.2938,369.4746 Q1893.6688,369.8027 1893.1688,370.5527 Q1892.6844,371.3027 1892.6844,372.334 L1892.6844,373.4277 Q1892.6844,374.6621 1893.575,375.4902 Q1894.4656,376.3027 1896.0594,376.3027 Q1896.9969,376.3027 1897.6531,376.0527 Q1898.0438,375.8965 1898.4656,375.459 Q1898.7313,375.1934 1898.8719,375.1152 Q1899.0281,375.0371 1899.2313,375.0371 Q1899.5594,375.0371 1899.8094,375.3027 Q1900.075,375.5527 1900.075,375.8965 Q1900.075,376.2402 1899.7313,376.6465 Q1899.2313,377.2246 1898.4344,377.5527 Q1897.3563,378.0059 1896.0594,378.0059 Q1894.5438,378.0059 1893.3406,377.3809 Q1892.3563,376.8809 1891.6688,375.8184 Q1890.9813,374.7402 1890.9813,373.459 L1890.9813,372.3027 Q1890.9813,370.9746 1891.5906,369.834 Q1892.2156,368.6777 1893.3094,368.0684 Q1894.4031,367.4434 1895.6375,367.4434 Q1896.3719,367.4434 1897.0125,367.6152 Q1897.6688,367.7715 1898.2156,368.1309 Z " fill="#000000"/><ellipse cx="1920.55" cy="371.7559" fill="#84BE84" rx="3" ry="3" style="stroke:#038048;stroke-width:1.0;"/><text fill="#000000" font-family="sans-serif" font-size="14" lengthAdjust="spacing" textLength="77" x="1981.05" y="368.7422">&#171;Exception&#187;</text><text fill="#000000" font-family="sans-serif" font-size="14" font-weight="bold" lengthAdjust="spacing" textLength="30" x="1926.55" y="387.3633">final</text><text fill="#000000" font-family="sans-serif" font-size="14" lengthAdjust="spacing" textLength="152" x="1960.55" y="387.3633">TaskCanceledException</text><line style="stroke:#D4AC0D;stroke-width:2.0;" x1="1854" x2="2142" y1="395.877" y2="395.877"/><line style="stroke:#D4AC0D;stroke-width:2.0;" x1="1854" x2="2142" y1="403.877" y2="403.877"/><ellipse cx="1864" cy="418.6875" fill="#84BE84" rx="3" ry="3" style="stroke:#038048;stroke-width:1.0;"/><text fill="#000000" font-family="sans-serif" font-size="14" lengthAdjust="spacing" textLength="264" x="1873" y="422.9844">TaskCanceledException (String message)</text></g><!--class PoolPluginFactorySpi--><g id="elem_PoolPluginFactorySpi"><rect codeLine="87" fill="#FEFECE" height="122.4844" id="PoolPluginFactorySpi" rx="2.5" ry="2.5" style="stroke:#D4AC0D;stroke-width:2.0;" width="225" x="361.5" y="328.6348"/><ellipse cx="397.65" cy="344.6348" fill="#B4A7E5" rx="11" ry="11" style="stroke:#181818;stroke-width:1.0;"/><path d="M398.6031,341.2754 L398.6031,347.9316 L400.3219,347.9316 Q400.9313,347.9316 401.1969,348.166 Q401.4625,348.4004 401.4625,348.791 Q401.4625,349.166 401.1969,349.4004 Q400.9313,349.6348 400.3219,349.6348 L395.1813,349.6348 Q394.5719,349.6348 394.3063,349.4004 Q394.0406,349.166 394.0406,348.7754 Q394.0406,348.4004 394.3063,348.166 Q394.5719,347.9316 395.1813,347.9316 L396.9,347.9316 L396.9,341.2754 L395.1813,341.2754 Q394.5719,341.2754 394.3063,341.041 Q394.0406,340.8066 394.0406,340.416 Q394.0406,340.041 394.3063,339.8066 Q394.5719,339.5723 395.1813,339.5723 L400.3219,339.5723 Q400.9313,339.5723 401.1969,339.8066 Q401.4625,340.041 401.4625,340.416 Q401.4625,340.8066 401.1969,341.041 Q400.9313,341.2754 400.3219,341.2754 L398.6031,341.2754 Z " fill="#000000"/><ellipse cx="421.35" cy="344.1348" fill="#84BE84" rx="3" ry="3" style="stroke:#038048;stroke-width:1.0;"/><text fill="#000000" font-family="sans-serif" font-size="14" font-style="italic" lengthAdjust="spacing" textLength="135" x="427.35" y="350.4316">PoolPluginFactorySpi</text><line style="stroke:#D4AC0D;stroke-width:2.0;" x1="362.5" x2="585.5" y1="360.6348" y2="360.6348"/><line style="stroke:#D4AC0D;stroke-width:2.0;" x1="362.5" x2="585.5" y1="368.6348" y2="368.6348"/><ellipse cx="372.5" cy="383.4453" fill="#84BE84" rx="3" ry="3" style="stroke:#038048;stroke-width:1.0;"/><text fill="#000000" font-family="sans-serif" font-size="14" lengthAdjust="spacing" textLength="182" x="381.5" y="387.7422">String getPluginApiVersion ()</text><ellipse cx="372.5" cy="402.0664" fill="#84BE84" rx="3" ry="3" style="stroke:#038048;stroke-width:1.0;"/><text fill="#000000" font-family="sans-serif" font-size="14" lengthAdjust="spacing" textLength="199" x="381.5" y="406.3633">String getCommonApiVersion ()</text><ellipse cx="372.5" cy="420.6875" fill="#84BE84" rx="3" ry="3" style="stroke:#038048;stroke-width:1.0;"/><text fill="#000000" font-family="sans-serif" font-size="14" lengthAdjust="spacing" textLength="178" x="381.5" y="424.9844">String getPoolPluginName ()</text><ellipse cx="372.5" cy="439.3086" fill="#84BE84" rx="3" ry="3" style="stroke:#038048;stroke-width:1.0;"/><text fill="#000000" font-family="sans-serif" font-size="14" lengthAdjust="spacing" textLength="192" x="381.5" y="443.6055">PoolPluginSpi getPoolPlugin ()</text></g><!--class PluginFactorySpi--><g id="elem_PluginFactorySpi"><rect codeLine="93" fill="#FEFECE" height="122.4844" id="PluginFactorySpi" rx="2.5" ry="2.5" style="stroke:#D4AC0D;stroke-width:2.0;" width="225" x="690.5" y="328.6348"/><ellipse cx="739.75" cy="344.6348" fill="#B4A7E5" rx="11" ry="11" style="stroke:#181818;stroke-width:1.0;"/><path d="M740.7031,341.2754 L740.7031,347.9316 L742.4219,347.9316 Q743.0313,347.9316 743.2969,348.166 Q743.5625,348.4004 743.5625,348.791 Q743.5625,349.166 743.2969,349.4004 Q743.0313,349.6348 742.4219,349.6348 L737.2813,349.6348 Q736.6719,349.6348 736.4063,349.4004 Q736.1406,349.166 736.1406,348.7754 Q736.1406,348.4004 736.4063,348.166 Q736.6719,347.9316 737.2813,347.9316 L739,347.9316 L739,341.2754 L737.2813,341.2754 Q736.6719,341.2754 736.4063,341.041 Q736.1406,340.8066 736.1406,340.416 Q736.1406,340.041 736.4063,339.8066 Q736.6719,339.5723 737.2813,339.5723 L742.4219,339.5723 Q743.0313,339.5723 743.2969,339.8066 Q743.5625,340.041 743.5625,340.416 Q743.5625,340.8066 743.2969,341.041 Q743.0313,341.2754 742.4219,341.2754 L740.7031,341.2754 Z " fill="#000000"/><ellipse cx="765.25" cy="344.1348" fill="#84BE84" rx="3" ry="3" style="stroke:#038048;stroke-width:1.0;"/><text fill="#000000" font-family="sans-serif" font-size="14" font-style="italic" lengthAdjust="spacing" textLength="107" x="771.25" y="350.4316">PluginFactorySpi</text><line style="stroke:#D4AC0D;stroke-width:2.0;" x1="691.5" x2="914.5" y1="360.6348" y2="360.6348"/><line style="stroke:#D4AC0D;stroke-width:2.0;" x1="691.5" x2="914.5" y1="368.6348" y2="368.6348"/><ellipse cx="701.5" cy="383.4453" fill="#84BE84" rx="3" ry="3" style="stroke:#038048;stroke-width:1.0;"/><text fill="#000000" font-family="sans-serif" font-size="14" lengthAdjust="spacing" textLength="182" x="710.5" y="387.7422">String getPluginApiVersion ()</text><ellipse cx="701.5" cy="402.0664" fill="#84BE84" rx="3" ry="3" style="stroke:#038048;stroke-width:1.0;"/><text fill="#000000" font-family="sans-serif" font-size="14" lengthAdjust="spacing" textLength="199" x="710.5" y="406.3633">String getCommonApiVersion ()</text><ellipse cx="701.5" cy="420.6875" fill="#84BE84" rx="3" ry="3" style="stroke:#038048;stroke-width:1.0;"/><text fill="#000000" font-family="sans-serif" font-size="14" lengthAdjust="spacing" textLength="150" x="710.5" y="424.9844">String getPluginName ()</text><ellipse cx="701.5" cy="439.3086" fill="#84BE84" rx="3" ry="3" style="stroke:#038048;stroke-width:1.0;"/><text fill="#000000" font-family="sans-serif" font-size="14" lengthAdjust="spacing" textLength="136" x="710.5" y="443.6055">PluginSpi getPlugin ()</text></g><!--class PoolPluginSpi--><g id="elem_PoolPluginSpi"><rect codeLine="99" fill="#FEFECE" height="141.1055" id="PoolPluginSpi" rx="2.5" ry="2.5" style="stroke:#D4AC0D;stroke-width:2.0;" width="424" x="244" y="529.6348"/><ellipse cx="402.75" cy="545.6348" fill="#B4A7E5" rx="11" ry="11" style="stroke:#181818;stroke-width:1.0;"/><path d="M403.7031,542.2754 L403.7031,548.9316 L405.4219,548.9316 Q406.0313,548.9316 406.2969,549.166 Q406.5625,549.4004 406.5625,549.791 Q406.5625,550.166 406.2969,550.4004 Q406.0313,550.6348 405.4219,550.6348 L400.2813,550.6348 Q399.6719,550.6348 399.4063,550.4004 Q399.1406,550.166 399.1406,549.7754 Q399.1406,549.4004 399.4063,549.166 Q399.6719,548.9316 400.2813,548.9316 L402,548.9316 L402,542.2754 L400.2813,542.2754 Q399.6719,542.2754 399.4063,542.041 Q399.1406,541.8066 399.1406,541.416 Q399.1406,541.041 399.4063,540.8066 Q399.6719,540.5723 400.2813,540.5723 L405.4219,540.5723 Q406.0313,540.5723 406.2969,540.8066 Q406.5625,541.041 406.5625,541.416 Q406.5625,541.8066 406.2969,542.041 Q406.0313,542.2754 405.4219,542.2754 L403.7031,542.2754 Z " fill="#000000"/><ellipse cx="428.25" cy="545.1348" fill="#84BE84" rx="3" ry="3" style="stroke:#038048;stroke-width:1.0;"/><text fill="#000000" font-family="sans-serif" font-size="14" font-style="italic" lengthAdjust="spacing" textLength="87" x="434.25" y="551.4316">PoolPluginSpi</text><line style="stroke:#D4AC0D;stroke-width:2.0;" x1="245" x2="667" y1="561.6348" y2="561.6348"/><line style="stroke:#D4AC0D;stroke-width:2.0;" x1="245" x2="667" y1="569.6348" y2="569.6348"/><ellipse cx="255" cy="584.4453" fill="#84BE84" rx="3" ry="3" style="stroke:#038048;stroke-width:1.0;"/><text fill="#000000" font-family="sans-serif" font-size="14" lengthAdjust="spacing" textLength="111" x="264" y="588.7422">String getName ()</text><ellipse cx="255" cy="603.0664" fill="#84BE84" rx="3" ry="3" style="stroke:#038048;stroke-width:1.0;"/><text fill="#000000" font-family="sans-serif" font-size="14" lengthAdjust="spacing" textLength="314" x="264" y="607.3633">SortedSet&lt;String&gt; getReaderGroupReferences ()</text><ellipse cx="255" cy="621.6875" fill="#84BE84" rx="3" ry="3" style="stroke:#038048;stroke-width:1.0;"/><text fill="#0000FF" font-family="sans-serif" font-size="14" lengthAdjust="spacing" textLength="95" x="264" y="625.9844">PoolReaderSpi</text><text fill="#000000" font-family="sans-serif" font-size="14" lengthAdjust="spacing" textLength="299" x="363" y="625.9844">allocateReader (String readerGroupReference)</text><ellipse cx="255" cy="640.3086" fill="#84BE84" rx="3" ry="3" style="stroke:#038048;stroke-width:1.0;"/><text fill="#000000" font-family="sans-serif" font-size="14" lengthAdjust="spacing" textLength="271" x="264" y="644.6055">void releaseReader (ReaderSpi readerSpi)</text><ellipse cx="255" cy="658.9297" fill="#84BE84" rx="3" ry="3" style="stroke:#038048;stroke-width:1.0;"/><text fill="#000000" font-family="sans-serif" font-size="14" lengthAdjust="spacing" textLength="125" x="264" y="663.2266">void onUnregister ()</text></g><!--class PluginSpi--><g id="elem_PluginSpi"><rect codeLine="106" fill="#FEFECE" height="103.8633" id="PluginSpi" rx="2.5" ry="2.5" style="stroke:#D4AC0D;stroke-width:2.0;" width="302" x="703" y="548.1348"/><ellipse cx="814.75" cy="564.1348" fill="#B4A7E5" rx="11" ry="11" style="stroke:#181818;stroke-width:1.0;"/><path d="M815.7031,560.7754 L815.7031,567.4316 L817.4219,567.4316 Q818.0313,567.4316 818.2969,567.666 Q818.5625,567.9004 818.5625,568.291 Q818.5625,568.666 818.2969,568.9004 Q818.0313,569.1348 817.4219,569.1348 L812.2813,569.1348 Q811.6719,569.1348 811.4063,568.9004 Q811.1406,568.666 811.1406,568.2754 Q811.1406,567.9004 811.4063,567.666 Q811.6719,567.4316 812.2813,567.4316 L814,567.4316 L814,560.7754 L812.2813,560.7754 Q811.6719,560.7754 811.4063,560.541 Q811.1406,560.3066 811.1406,559.916 Q811.1406,559.541 811.4063,559.3066 Q811.6719,559.0723 812.2813,559.0723 L817.4219,559.0723 Q818.0313,559.0723 818.2969,559.3066 Q818.5625,559.541 818.5625,559.916 Q818.5625,560.3066 818.2969,560.541 Q818.0313,560.7754 817.4219,560.7754 L815.7031,560.7754 Z " fill="#000000"/><ellipse cx="840.25" cy="563.6348" fill="#84BE84" rx="3" ry="3" style="stroke:#038048;stroke-width:1.0;"/><text fill="#000000" font-family="sans-serif" font-size="14" font-style="italic" lengthAdjust="spacing" textLength="59" x="846.25" y="569.9316">PluginSpi</text><line style="stroke:#D4AC0D;stroke-width:2.0;" x1="704" x2="1004" y1="580.1348" y2="580.1348"/><line style="stroke:#D4AC0D;stroke-width:2.0;" x1="704" x2="1004" y1="588.1348" y2="588.1348"/><ellipse cx="714" cy="602.9453" fill="#84BE84" rx="3" ry="3" style="stroke:#038048;stroke-width:1.0;"/><text fill="#000000" font-family="sans-serif" font-size="14" lengthAdjust="spacing" textLength="111" x="723" y="607.2422">String getName ()</text><ellipse cx="714" cy="621.5664" fill="#84BE84" rx="3" ry="3" style="stroke:#038048;stroke-width:1.0;"/><text fill="#000000" font-family="sans-serif" font-size="14" lengthAdjust="spacing" textLength="276" x="723" y="625.8633">Set&lt;ReaderSpi&gt; searchAvailableReaders ()</text><ellipse cx="714" cy="640.1875" fill="#84BE84" rx="3" ry="3" style="stroke:#038048;stroke-width:1.0;"/><text fill="#000000" font-family="sans-serif" font-size="14" lengthAdjust="spacing" textLength="125" x="723" y="644.4844">void onUnregister ()</text></g><!--class ObservablePluginSpi--><g id="elem_ObservablePluginSpi"><rect codeLine="112" fill="#FEFECE" height="103.8633" id="ObservablePluginSpi" rx="2.5" ry="2.5" style="stroke:#D4AC0D;stroke-width:2.0;" width="320" x="881" y="749.6348"/><ellipse cx="965.75" cy="765.6348" fill="#B4A7E5" rx="11" ry="11" style="stroke:#181818;stroke-width:1.0;"/><path d="M966.7031,762.2754 L966.7031,768.9316 L968.4219,768.9316 Q969.0313,768.9316 969.2969,769.166 Q969.5625,769.4004 969.5625,769.791 Q969.5625,770.166 969.2969,770.4004 Q969.0313,770.6348 968.4219,770.6348 L963.2813,770.6348 Q962.6719,770.6348 962.4063,770.4004 Q962.1406,770.166 962.1406,769.7754 Q962.1406,769.4004 962.4063,769.166 Q962.6719,768.9316 963.2813,768.9316 L965,768.9316 L965,762.2754 L963.2813,762.2754 Q962.6719,762.2754 962.4063,762.041 Q962.1406,761.8066 962.1406,761.416 Q962.1406,761.041 962.4063,760.8066 Q962.6719,760.5723 963.2813,760.5723 L968.4219,760.5723 Q969.0313,760.5723 969.2969,760.8066 Q969.5625,761.041 969.5625,761.416 Q969.5625,761.8066 969.2969,762.041 Q969.0313,762.2754 968.4219,762.2754 L966.7031,762.2754 Z " fill="#000000"/><ellipse cx="991.25" cy="765.1348" fill="#84BE84" rx="3" ry="3" style="stroke:#038048;stroke-width:1.0;"/><text fill="#000000" font-family="sans-serif" font-size="14" font-style="italic" lengthAdjust="spacing" textLength="131" x="997.25" y="771.4316">ObservablePluginSpi</text><line style="stroke:#D4AC0D;stroke-width:2.0;" x1="882" x2="1200" y1="781.6348" y2="781.6348"/><line style="stroke:#D4AC0D;stroke-width:2.0;" x1="882" x2="1200" y1="789.6348" y2="789.6348"/><ellipse cx="892" cy="804.4453" fill="#84BE84" rx="3" ry="3" style="stroke:#038048;stroke-width:1.0;"/><text fill="#000000" font-family="sans-serif" font-size="14" lengthAdjust="spacing" textLength="208" x="901" y="808.7422">int getMonitoringCycleDuration ()</text><ellipse cx="892" cy="823.0664" fill="#84BE84" rx="3" ry="3" style="stroke:#038048;stroke-width:1.0;"/><text fill="#000000" font-family="sans-serif" font-size="14" lengthAdjust="spacing" textLength="282" x="901" y="827.3633">Set&lt;String&gt; searchAvailableReaderNames ()</text><ellipse cx="892" cy="841.6875" fill="#84BE84" rx="3" ry="3" style="stroke:#038048;stroke-width:1.0;"/><text fill="#000000" font-family="sans-serif" font-size="14" lengthAdjust="spacing" textLength="294" x="901" y="845.9844">ReaderSpi searchReader (String readerName)</text></g><!--class AutonomousObservablePluginSpi--><g id="elem_AutonomousObservablePluginSpi"><rect codeLine="117" fill="#FEFECE" height="103.8633" id="AutonomousObservablePluginSpi" rx="2.5" ry="2.5" style="stroke:#D4AC0D;stroke-width:2.0;" width="305" x="1236.5" y="749.6348"/><ellipse cx="1274.9" cy="765.6348" fill="#B4A7E5" rx="11" ry="11" style="stroke:#181818;stroke-width:1.0;"/><path d="M1275.8531,762.2754 L1275.8531,768.9316 L1277.5719,768.9316 Q1278.1813,768.9316 1278.4469,769.166 Q1278.7125,769.4004 1278.7125,769.791 Q1278.7125,770.166 1278.4469,770.4004 Q1278.1813,770.6348 1277.5719,770.6348 L1272.4313,770.6348 Q1271.8219,770.6348 1271.5563,770.4004 Q1271.2906,770.166 1271.2906,769.7754 Q1271.2906,769.4004 1271.5563,769.166 Q1271.8219,768.9316 1272.4313,768.9316 L1274.15,768.9316 L1274.15,762.2754 L1272.4313,762.2754 Q1271.8219,762.2754 1271.5563,762.041 Q1271.2906,761.8066 1271.2906,761.416 Q1271.2906,761.041 1271.5563,760.8066 Q1271.8219,760.5723 1272.4313,760.5723 L1277.5719,760.5723 Q1278.1813,760.5723 1278.4469,760.8066 Q1278.7125,761.041 1278.7125,761.416 Q1278.7125,761.8066 1278.4469,762.041 Q1278.1813,762.2754 1277.5719,762.2754 L1275.8531,762.2754 Z " fill="#000000"/><ellipse cx="1299.1" cy="765.1348" fill="#84BE84" rx="3" ry="3" style="stroke:#038048;stroke-width:1.0;"/><text fill="#000000" font-family="sans-serif" font-size="14" font-style="italic" lengthAdjust="spacing" textLength="210" x="1305.1" y="771.4316">AutonomousObservablePluginSpi</text><line style="stroke:#D4AC0D;stroke-width:2.0;" x1="1237.5" x2="1540.5" y1="781.6348" y2="781.6348"/><line style="stroke:#D4AC0D;stroke-width:1.0;" x1="1237.5" x2="1540.5" y1="789.6348" y2="789.6348"/><ellipse cx="1247.5" cy="804.4453" fill="#84BE84" rx="3" ry="3" style="stroke:#038048;stroke-width:1.0;"/><text fill="#000000" font-family="sans-serif" font-size="14" lengthAdjust="spacing" textLength="89" x="1256.5" y="808.7422">void connect (</text><text fill="#000000" font-family="sans-serif" font-size="14" lengthAdjust="spacing" textLength="211" x="1288.5" y="827.3633">AutonomousObservablePluginApi</text><text fill="#000000" font-family="sans-serif" font-size="14" lengthAdjust="spacing" textLength="215" x="1320.5" y="845.9844">autonomousObservablePluginApi)</text></g><!--class ReaderSpi--><g id="elem_ReaderSpi"><rect codeLine="124" fill="#FEFECE" height="252.832" id="ReaderSpi" rx="2.5" ry="2.5" style="stroke:#D4AC0D;stroke-width:2.0;" width="245" x="668.5" y="971.6348"/><ellipse cx="747.75" cy="987.6348" fill="#B4A7E5" rx="11" ry="11" style="stroke:#181818;stroke-width:1.0;"/><path d="M748.7031,984.2754 L748.7031,990.9316 L750.4219,990.9316 Q751.0313,990.9316 751.2969,991.166 Q751.5625,991.4004 751.5625,991.791 Q751.5625,992.166 751.2969,992.4004 Q751.0313,992.6348 750.4219,992.6348 L745.2813,992.6348 Q744.6719,992.6348 744.4063,992.4004 Q744.1406,992.166 744.1406,991.7754 Q744.1406,991.4004 744.4063,991.166 Q744.6719,990.9316 745.2813,990.9316 L747,990.9316 L747,984.2754 L745.2813,984.2754 Q744.6719,984.2754 744.4063,984.041 Q744.1406,983.8066 744.1406,983.416 Q744.1406,983.041 744.4063,982.8066 Q744.6719,982.5723 745.2813,982.5723 L750.4219,982.5723 Q751.0313,982.5723 751.2969,982.8066 Q751.5625,983.041 751.5625,983.416 Q751.5625,983.8066 751.2969,984.041 Q751.0313,984.2754 750.4219,984.2754 L748.7031,984.2754 Z " fill="#000000"/><ellipse cx="773.25" cy="987.1348" fill="#84BE84" rx="3" ry="3" style="stroke:#038048;stroke-width:1.0;"/><text fill="#000000" font-family="sans-serif" font-size="14" font-style="italic" lengthAdjust="spacing" textLength="67" x="779.25" y="993.4316">ReaderSpi</text><line style="stroke:#D4AC0D;stroke-width:2.0;" x1="669.5" x2="912.5" y1="1003.6348" y2="1003.6348"/><line style="stroke:#D4AC0D;stroke-width:2.0;" x1="669.5" x2="912.5" y1="1011.6348" y2="1011.6348"/><ellipse cx="679.5" cy="1026.4453" fill="#84BE84" rx="3" ry="3" style="stroke:#038048;stroke-width:1.0;"/><text fill="#000000" font-family="sans-serif" font-size="14" lengthAdjust="spacing" textLength="111" x="688.5" y="1030.7422">String getName ()</text><text fill="#000000" font-family="sans-serif" font-size="14" lengthAdjust="spacing" textLength="4" x="688.5" y="1049.3633">&#160;</text><ellipse cx="679.5" cy="1063.6875" fill="#84BE84" rx="3" ry="3" style="stroke:#038048;stroke-width:1.0;"/><text fill="#000000" font-family="sans-serif" font-size="14" lengthAdjust="spacing" textLength="181" x="688.5" y="1067.9844">void openPhysicalChannel ()</text><ellipse cx="679.5" cy="1082.3086" fill="#84BE84" rx="3" ry="3" style="stroke:#038048;stroke-width:1.0;"/><text fill="#000000" font-family="sans-serif" font-size="14" lengthAdjust="spacing" textLength="182" x="688.5" y="1086.6055">void closePhysicalChannel ()</text><ellipse cx="679.5" cy="1100.9297" fill="#84BE84" rx="3" ry="3" style="stroke:#038048;stroke-width:1.0;"/><text fill="#000000" font-family="sans-serif" font-size="14" lengthAdjust="spacing" textLength="219" x="688.5" y="1105.2266">boolean isPhysicalChannelOpen ()</text><text fill="#000000" font-family="sans-serif" font-size="14" lengthAdjust="spacing" textLength="4" x="688.5" y="1123.8477">&#160;</text><ellipse cx="679.5" cy="1138.1719" fill="#84BE84" rx="3" ry="3" style="stroke:#038048;stroke-width:1.0;"/><text fill="#000000" font-family="sans-serif" font-size="14" lengthAdjust="spacing" textLength="197" x="688.5" y="1142.4688">boolean checkCardPresence ()</text><ellipse cx="679.5" cy="1156.793" fill="#84BE84" rx="3" ry="3" style="stroke:#038048;stroke-width:1.0;"/><text fill="#000000" font-family="sans-serif" font-size="14" lengthAdjust="spacing" textLength="163" x="688.5" y="1161.0898">String getPowerOnData ()</text><ellipse cx="679.5" cy="1175.4141" fill="#84BE84" rx="3" ry="3" style="stroke:#038048;stroke-width:1.0;"/><text fill="#000000" font-family="sans-serif" font-size="14" lengthAdjust="spacing" textLength="218" x="688.5" y="1179.7109">byte[] transmitApdu (byte[] apduIn)</text><ellipse cx="679.5" cy="1194.0352" fill="#84BE84" rx="3" ry="3" style="stroke:#038048;stroke-width:1.0;"/><text fill="#000000" font-family="sans-serif" font-size="14" lengthAdjust="spacing" textLength="153" x="688.5" y="1198.332">boolean isContactless ()</text><ellipse cx="679.5" cy="1212.6563" fill="#84BE84" rx="3" ry="3" style="stroke:#038048;stroke-width:1.0;"/><text fill="#000000" font-family="sans-serif" font-size="14" lengthAdjust="spacing" textLength="125" x="688.5" y="1216.9531">void onUnregister ()</text></g><!--class PoolReaderSpi--><g id="elem_PoolReaderSpi"><rect codeLine="137" fill="#FEFECE" height="66.6211" id="PoolReaderSpi" rx="2.5" ry="2.5" style="stroke:#D4AC0D;stroke-width:2.0;" width="228" x="152" y="1313.1348"/><ellipse cx="208.75" cy="1329.1348" fill="#B4A7E5" rx="11" ry="11" style="stroke:#181818;stroke-width:1.0;"/><path d="M209.7031,1325.7754 L209.7031,1332.4316 L211.4219,1332.4316 Q212.0313,1332.4316 212.2969,1332.666 Q212.5625,1332.9004 212.5625,1333.291 Q212.5625,1333.666 212.2969,1333.9004 Q212.0313,1334.1348 211.4219,1334.1348 L206.2813,1334.1348 Q205.6719,1334.1348 205.4063,1333.9004 Q205.1406,1333.666 205.1406,1333.2754 Q205.1406,1332.9004 205.4063,1332.666 Q205.6719,1332.4316 206.2813,1332.4316 L208,1332.4316 L208,1325.7754 L206.2813,1325.7754 Q205.6719,1325.7754 205.4063,1325.541 Q205.1406,1325.3066 205.1406,1324.916 Q205.1406,1324.541 205.4063,1324.3066 Q205.6719,1324.0723 206.2813,1324.0723 L211.4219,1324.0723 Q212.0313,1324.0723 212.2969,1324.3066 Q212.5625,1324.541 212.5625,1324.916 Q212.5625,1325.3066 212.2969,1325.541 Q212.0313,1325.7754 211.4219,1325.7754 L209.7031,1325.7754 Z " fill="#000000"/><ellipse cx="234.25" cy="1328.6348" fill="#84BE84" rx="3" ry="3" style="stroke:#038048;stroke-width:1.0;"/><text fill="#0000FF" font-family="sans-serif" font-size="14" font-style="italic" lengthAdjust="spacing" textLength="95" x="240.25" y="1334.9316">PoolReaderSpi</text><line style="stroke:#D4AC0D;stroke-width:2.0;" x1="153" x2="379" y1="1345.1348" y2="1345.1348"/><line style="stroke:#D4AC0D;stroke-width:2.0;" x1="153" x2="379" y1="1353.1348" y2="1353.1348"/><ellipse cx="163" cy="1367.9453" fill="#84BE84" rx="3" ry="3" style="stroke:#038048;stroke-width:1.0;"/><text fill="#0000FF" font-family="sans-serif" font-size="14" lengthAdjust="spacing" textLength="202" x="172" y="1372.2422">Object getSelectedSmartCard ()</text></g><!--class ConfigurableReaderSpi--><g id="elem_ConfigurableReaderSpi"><rect codeLine="140" fill="#FEFECE" height="122.4844" id="ConfigurableReaderSpi" rx="2.5" ry="2.5" style="stroke:#D4AC0D;stroke-width:2.0;" width="358" x="415" y="1285.6348"/><ellipse cx="510.25" cy="1301.6348" fill="#B4A7E5" rx="11" ry="11" style="stroke:#181818;stroke-width:1.0;"/><path d="M511.2031,1298.2754 L511.2031,1304.9316 L512.9219,1304.9316 Q513.5313,1304.9316 513.7969,1305.166 Q514.0625,1305.4004 514.0625,1305.791 Q514.0625,1306.166 513.7969,1306.4004 Q513.5313,1306.6348 512.9219,1306.6348 L507.7813,1306.6348 Q507.1719,1306.6348 506.9063,1306.4004 Q506.6406,1306.166 506.6406,1305.7754 Q506.6406,1305.4004 506.9063,1305.166 Q507.1719,1304.9316 507.7813,1304.9316 L509.5,1304.9316 L509.5,1298.2754 L507.7813,1298.2754 Q507.1719,1298.2754 506.9063,1298.041 Q506.6406,1297.8066 506.6406,1297.416 Q506.6406,1297.041 506.9063,1296.8066 Q507.1719,1296.5723 507.7813,1296.5723 L512.9219,1296.5723 Q513.5313,1296.5723 513.7969,1296.8066 Q514.0625,1297.041 514.0625,1297.416 Q514.0625,1297.8066 513.7969,1298.041 Q513.5313,1298.2754 512.9219,1298.2754 L511.2031,1298.2754 Z " fill="#000000"/><ellipse cx="535.75" cy="1301.1348" fill="#84BE84" rx="3" ry="3" style="stroke:#038048;stroke-width:1.0;"/><text fill="#000000" font-family="sans-serif" font-size="14" font-style="italic" lengthAdjust="spacing" textLength="148" x="541.75" y="1307.4316">ConfigurableReaderSpi</text><line style="stroke:#D4AC0D;stroke-width:2.0;" x1="416" x2="772" y1="1317.6348" y2="1317.6348"/><line style="stroke:#D4AC0D;stroke-width:2.0;" x1="416" x2="772" y1="1325.6348" y2="1325.6348"/><ellipse cx="426" cy="1340.4453" fill="#84BE84" rx="3" ry="3" style="stroke:#038048;stroke-width:1.0;"/><text fill="#000000" font-family="sans-serif" font-size="14" lengthAdjust="spacing" textLength="332" x="435" y="1344.7422">boolean isProtocolSupported (String readerProtocol)</text><ellipse cx="426" cy="1359.0664" fill="#84BE84" rx="3" ry="3" style="stroke:#038048;stroke-width:1.0;"/><text fill="#000000" font-family="sans-serif" font-size="14" lengthAdjust="spacing" textLength="280" x="435" y="1363.3633">void activateProtocol (String readerProtocol)</text><ellipse cx="426" cy="1377.6875" fill="#84BE84" rx="3" ry="3" style="stroke:#038048;stroke-width:1.0;"/><text fill="#000000" font-family="sans-serif" font-size="14" lengthAdjust="spacing" textLength="296" x="435" y="1381.9844">void deactivateProtocol (String readerProtocol)</text><ellipse cx="426" cy="1396.3086" fill="#84BE84" rx="3" ry="3" style="stroke:#038048;stroke-width:1.0;"/><text fill="#000000" font-family="sans-serif" font-size="14" lengthAdjust="spacing" textLength="314" x="435" y="1400.6055">boolean isCurrentProtocol (String readerProtocol)</text></g><!--class AutonomousSelectionReaderSpi--><g id="elem_AutonomousSelectionReaderSpi"><rect codeLine="146" fill="#FEFECE" height="85.2422" id="AutonomousSelectionReaderSpi" rx="2.5" ry="2.5" style="stroke:#D4AC0D;stroke-width:2.0;" width="429" x="808.5" y="1304.1348"/><ellipse cx="911.25" cy="1320.1348" fill="#B4A7E5" rx="11" ry="11" style="stroke:#181818;stroke-width:1.0;"/><path d="M912.2031,1316.7754 L912.2031,1323.4316 L913.9219,1323.4316 Q914.5313,1323.4316 914.7969,1323.666 Q915.0625,1323.9004 915.0625,1324.291 Q915.0625,1324.666 914.7969,1324.9004 Q914.5313,1325.1348 913.9219,1325.1348 L908.7813,1325.1348 Q908.1719,1325.1348 907.9063,1324.9004 Q907.6406,1324.666 907.6406,1324.2754 Q907.6406,1323.9004 907.9063,1323.666 Q908.1719,1323.4316 908.7813,1323.4316 L910.5,1323.4316 L910.5,1316.7754 L908.7813,1316.7754 Q908.1719,1316.7754 907.9063,1316.541 Q907.6406,1316.3066 907.6406,1315.916 Q907.6406,1315.541 907.9063,1315.3066 Q908.1719,1315.0723 908.7813,1315.0723 L913.9219,1315.0723 Q914.5313,1315.0723 914.7969,1315.3066 Q915.0625,1315.541 915.0625,1315.916 Q915.0625,1316.3066 914.7969,1316.541 Q914.5313,1316.7754 913.9219,1316.7754 L912.2031,1316.7754 Z " fill="#000000"/><ellipse cx="936.75" cy="1319.6348" fill="#84BE84" rx="3" ry="3" style="stroke:#038048;stroke-width:1.0;"/><text fill="#000000" font-family="sans-serif" font-size="14" font-style="italic" lengthAdjust="spacing" textLength="204" x="942.75" y="1325.9316">AutonomousSelectionReaderSpi</text><line style="stroke:#D4AC0D;stroke-width:2.0;" x1="809.5" x2="1236.5" y1="1336.1348" y2="1336.1348"/><line style="stroke:#D4AC0D;stroke-width:2.0;" x1="809.5" x2="1236.5" y1="1344.1348" y2="1344.1348"/><ellipse cx="819.5" cy="1358.9453" fill="#84BE84" rx="3" ry="3" style="stroke:#038048;stroke-width:1.0;"/><text fill="#000000" font-family="sans-serif" font-size="14" lengthAdjust="spacing" textLength="403" x="828.5" y="1363.2422">byte[] openChannelForAid (byte[] dfName, byte isoControlMask)</text><ellipse cx="819.5" cy="1377.5664" fill="#84BE84" rx="3" ry="3" style="stroke:#038048;stroke-width:1.0;"/><text fill="#000000" font-family="sans-serif" font-size="14" lengthAdjust="spacing" textLength="175" x="828.5" y="1381.8633">void closeLogicalChannel ()</text></g><!--class ObservableReaderSpi--><g id="elem_ObservableReaderSpi"><rect codeLine="151" fill="#FEFECE" height="85.2422" id="ObservableReaderSpi" rx="2.5" ry="2.5" style="stroke:#D4AC0D;stroke-width:2.0;" width="182" x="932" y="1491.6348"/><ellipse cx="947" cy="1507.6348" fill="#B4A7E5" rx="11" ry="11" style="stroke:#181818;stroke-width:1.0;"/><path d="M947.9531,1504.2754 L947.9531,1510.9316 L949.6719,1510.9316 Q950.2813,1510.9316 950.5469,1511.166 Q950.8125,1511.4004 950.8125,1511.791 Q950.8125,1512.166 950.5469,1512.4004 Q950.2813,1512.6348 949.6719,1512.6348 L944.5313,1512.6348 Q943.9219,1512.6348 943.6563,1512.4004 Q943.3906,1512.166 943.3906,1511.7754 Q943.3906,1511.4004 943.6563,1511.166 Q943.9219,1510.9316 944.5313,1510.9316 L946.25,1510.9316 L946.25,1504.2754 L944.5313,1504.2754 Q943.9219,1504.2754 943.6563,1504.041 Q943.3906,1503.8066 943.3906,1503.416 Q943.3906,1503.041 943.6563,1502.8066 Q943.9219,1502.5723 944.5313,1502.5723 L949.6719,1502.5723 Q950.2813,1502.5723 950.5469,1502.8066 Q950.8125,1503.041 950.8125,1503.416 Q950.8125,1503.8066 950.5469,1504.041 Q950.2813,1504.2754 949.6719,1504.2754 L947.9531,1504.2754 Z " fill="#000000"/><ellipse cx="966" cy="1507.1348" fill="#84BE84" rx="3" ry="3" style="stroke:#038048;stroke-width:1.0;"/><text fill="#000000" font-family="sans-serif" font-size="14" font-style="italic" lengthAdjust="spacing" textLength="139" x="972" y="1513.4316">ObservableReaderSpi</text><line style="stroke:#D4AC0D;stroke-width:2.0;" x1="933" x2="1113" y1="1523.6348" y2="1523.6348"/><line style="stroke:#D4AC0D;stroke-width:2.0;" x1="933" x2="1113" y1="1531.6348" y2="1531.6348"/><ellipse cx="943" cy="1546.4453" fill="#84BE84" rx="3" ry="3" style="stroke:#038048;stroke-width:1.0;"/><text fill="#000000" font-family="sans-serif" font-size="14" lengthAdjust="spacing" textLength="150" x="952" y="1550.7422">void onStartDetection ()</text><ellipse cx="943" cy="1565.0664" fill="#84BE84" rx="3" ry="3" style="stroke:#038048;stroke-width:1.0;"/><text fill="#000000" font-family="sans-serif" font-size="14" lengthAdjust="spacing" textLength="149" x="952" y="1569.3633">void onStopDetection ()</text></g><!--class WaitForCardRemovalBlockingDuringProcessingSpi--><g id="elem_WaitForCardRemovalBlockingDuringProcessingSpi"><rect codeLine="157" fill="#FEFECE" height="85.2422" id="WaitForCardRemovalBlockingDuringProcessingSpi" rx="2.5" ry="2.5" style="stroke:#D4AC0D;stroke-width:2.0;" width="365" x="1040.5" y="1721.6348"/><ellipse cx="1055.5" cy="1737.6348" fill="#B4A7E5" rx="11" ry="11" style="stroke:#181818;stroke-width:1.0;"/><path d="M1056.4531,1734.2754 L1056.4531,1740.9316 L1058.1719,1740.9316 Q1058.7813,1740.9316 1059.0469,1741.166 Q1059.3125,1741.4004 1059.3125,1741.791 Q1059.3125,1742.166 1059.0469,1742.4004 Q1058.7813,1742.6348 1058.1719,1742.6348 L1053.0313,1742.6348 Q1052.4219,1742.6348 1052.1563,1742.4004 Q1051.8906,1742.166 1051.8906,1741.7754 Q1051.8906,1741.4004 1052.1563,1741.166 Q1052.4219,1740.9316 1053.0313,1740.9316 L1054.75,1740.9316 L1054.75,1734.2754 L1053.0313,1734.2754 Q1052.4219,1734.2754 1052.1563,1734.041 Q1051.8906,1733.8066 1051.8906,1733.416 Q1051.8906,1733.041 1052.1563,1732.8066 Q1052.4219,1732.5723 1053.0313,1732.5723 L1058.1719,1732.5723 Q1058.7813,1732.5723 1059.0469,1732.8066 Q1059.3125,1733.041 1059.3125,1733.416 Q1059.3125,1733.8066 1059.0469,1734.041 Q1058.7813,1734.2754 1058.1719,1734.2754 L1056.4531,1734.2754 Z " fill="#000000"/><ellipse cx="1074.5" cy="1737.1348" fill="#84BE84" rx="3" ry="3" style="stroke:#038048;stroke-width:1.0;"/><text fill="#000000" font-family="sans-serif" font-size="14" font-style="italic" lengthAdjust="spacing" textLength="322" x="1080.5" y="1743.4316">WaitForCardRemovalBlockingDuringProcessingSpi</text><line style="stroke:#D4AC0D;stroke-width:2.0;" x1="1041.5" x2="1404.5" y1="1753.6348" y2="1753.6348"/><line style="stroke:#D4AC0D;stroke-width:2.0;" x1="1041.5" x2="1404.5" y1="1761.6348" y2="1761.6348"/><ellipse cx="1051.5" cy="1776.4453" fill="#84BE84" rx="3" ry="3" style="stroke:#038048;stroke-width:1.0;"/><text fill="#000000" font-family="sans-serif" font-size="14" lengthAdjust="spacing" textLength="288" x="1060.5" y="1780.7422">void waitForCardRemovalDuringProcessing ()</text><ellipse cx="1051.5" cy="1795.0664" fill="#84BE84" rx="3" ry="3" style="stroke:#038048;stroke-width:1.0;"/><text fill="#000000" font-family="sans-serif" font-size="14" lengthAdjust="spacing" textLength="319" x="1060.5" y="1799.3633">void stopWaitForCardRemovalDuringProcessing ()</text></g><!--class DontWaitForCardRemovalDuringProcessingSpi--><g id="elem_DontWaitForCardRemovalDuringProcessingSpi"><rect codeLine="161" fill="#FEFECE" height="48" id="DontWaitForCardRemovalDuringProcessingSpi" rx="2.5" ry="2.5" style="stroke:#D4AC0D;stroke-width:2.0;" width="341" x="1052.5" y="1867.6348"/><ellipse cx="1067.5" cy="1883.6348" fill="#B4A7E5" rx="11" ry="11" style="stroke:#181818;stroke-width:1.0;"/><path d="M1068.4531,1880.2754 L1068.4531,1886.9316 L1070.1719,1886.9316 Q1070.7813,1886.9316 1071.0469,1887.166 Q1071.3125,1887.4004 1071.3125,1887.791 Q1071.3125,1888.166 1071.0469,1888.4004 Q1070.7813,1888.6348 1070.1719,1888.6348 L1065.0313,1888.6348 Q1064.4219,1888.6348 1064.1563,1888.4004 Q1063.8906,1888.166 1063.8906,1887.7754 Q1063.8906,1887.4004 1064.1563,1887.166 Q1064.4219,1886.9316 1065.0313,1886.9316 L1066.75,1886.9316 L1066.75,1880.2754 L1065.0313,1880.2754 Q1064.4219,1880.2754 1064.1563,1880.041 Q1063.8906,1879.8066 1063.8906,1879.416 Q1063.8906,1879.041 1064.1563,1878.8066 Q1064.4219,1878.5723 1065.0313,1878.5723 L1070.1719,1878.5723 Q1070.7813,1878.5723 1071.0469,1878.8066 Q1071.3125,1879.041 1071.3125,1879.416 Q1071.3125,1879.8066 1071.0469,1880.041 Q1070.7813,1880.2754 1070.1719,1880.2754 L1068.4531,1880.2754 Z " fill="#000000"/><ellipse cx="1086.5" cy="1883.1348" fill="#84BE84" rx="3" ry="3" style="stroke:#038048;stroke-width:1.0;"/><text fill="#000000" font-family="sans-serif" font-size="14" font-style="italic" lengthAdjust="spacing" textLength="298" x="1092.5" y="1889.4316">DontWaitForCardRemovalDuringProcessingSpi</text><line style="stroke:#D4AC0D;stroke-width:2.0;" x1="1053.5" x2="1392.5" y1="1899.6348" y2="1899.6348"/><line style="stroke:#D4AC0D;stroke-width:2.0;" x1="1053.5" x2="1392.5" y1="1907.6348" y2="1907.6348"/></g><!--class WaitForCardInsertionAutonomousSpi--><g id="elem_WaitForCardInsertionAutonomousSpi"><rect codeLine="165" fill="#FEFECE" height="103.8633" id="WaitForCardInsertionAutonomousSpi" rx="2.5" ry="2.5" style="stroke:#D4AC0D;stroke-width:2.0;" width="372" x="182" y="1978.6348"/><ellipse cx="240.25" cy="1994.6348" fill="#B4A7E5" rx="11" ry="11" style="stroke:#181818;stroke-width:1.0;"/><path d="M241.2031,1991.2754 L241.2031,1997.9316 L242.9219,1997.9316 Q243.5313,1997.9316 243.7969,1998.166 Q244.0625,1998.4004 244.0625,1998.791 Q244.0625,1999.166 243.7969,1999.4004 Q243.5313,1999.6348 242.9219,1999.6348 L237.7813,1999.6348 Q237.1719,1999.6348 236.9063,1999.4004 Q236.6406,1999.166 236.6406,1998.7754 Q236.6406,1998.4004 236.9063,1998.166 Q237.1719,1997.9316 237.7813,1997.9316 L239.5,1997.9316 L239.5,1991.2754 L237.7813,1991.2754 Q237.1719,1991.2754 236.9063,1991.041 Q236.6406,1990.8066 236.6406,1990.416 Q236.6406,1990.041 236.9063,1989.8066 Q237.1719,1989.5723 237.7813,1989.5723 L242.9219,1989.5723 Q243.5313,1989.5723 243.7969,1989.8066 Q244.0625,1990.041 244.0625,1990.416 Q244.0625,1990.8066 243.7969,1991.041 Q243.5313,1991.2754 242.9219,1991.2754 L241.2031,1991.2754 Z " fill="#000000"/><ellipse cx="265.75" cy="1994.1348" fill="#84BE84" rx="3" ry="3" style="stroke:#038048;stroke-width:1.0;"/><text fill="#000000" font-family="sans-serif" font-size="14" font-style="italic" lengthAdjust="spacing" textLength="236" x="271.75" y="2000.4316">WaitForCardInsertionAutonomousSpi</text><line style="stroke:#D4AC0D;stroke-width:2.0;" x1="183" x2="553" y1="2010.6348" y2="2010.6348"/><line style="stroke:#D4AC0D;stroke-width:1.0;" x1="183" x2="553" y1="2018.6348" y2="2018.6348"/><ellipse cx="193" cy="2033.4453" fill="#84BE84" rx="3" ry="3" style="stroke:#038048;stroke-width:1.0;"/><text fill="#000000" font-family="sans-serif" font-size="14" lengthAdjust="spacing" textLength="89" x="202" y="2037.7422">void connect (</text><text fill="#000000" font-family="sans-serif" font-size="14" lengthAdjust="spacing" textLength="281" x="234" y="2056.3633">WaitForCardInsertionAutonomousReaderApi</text><text fill="#000000" font-family="sans-serif" font-size="14" lengthAdjust="spacing" textLength="282" x="266" y="2074.9844">waitForCardInsertionAutonomousReaderApi)</text></g><!--class WaitForCardInsertionBlockingSpi--><g id="elem_WaitForCardInsertionBlockingSpi"><rect codeLine="171" fill="#FEFECE" height="85.2422" id="WaitForCardInsertionBlockingSpi" rx="2.5" ry="2.5" style="stroke:#D4AC0D;stroke-width:2.0;" width="254" x="241" y="1721.6348"/><ellipse cx="256" cy="1737.6348" fill="#B4A7E5" rx="11" ry="11" style="stroke:#181818;stroke-width:1.0;"/><path d="M256.9531,1734.2754 L256.9531,1740.9316 L258.6719,1740.9316 Q259.2813,1740.9316 259.5469,1741.166 Q259.8125,1741.4004 259.8125,1741.791 Q259.8125,1742.166 259.5469,1742.4004 Q259.2813,1742.6348 258.6719,1742.6348 L253.5313,1742.6348 Q252.9219,1742.6348 252.6563,1742.4004 Q252.3906,1742.166 252.3906,1741.7754 Q252.3906,1741.4004 252.6563,1741.166 Q252.9219,1740.9316 253.5313,1740.9316 L255.25,1740.9316 L255.25,1734.2754 L253.5313,1734.2754 Q252.9219,1734.2754 252.6563,1734.041 Q252.3906,1733.8066 252.3906,1733.416 Q252.3906,1733.041 252.6563,1732.8066 Q252.9219,1732.5723 253.5313,1732.5723 L258.6719,1732.5723 Q259.2813,1732.5723 259.5469,1732.8066 Q259.8125,1733.041 259.8125,1733.416 Q259.8125,1733.8066 259.5469,1734.041 Q259.2813,1734.2754 258.6719,1734.2754 L256.9531,1734.2754 Z " fill="#000000"/><ellipse cx="275" cy="1737.1348" fill="#84BE84" rx="3" ry="3" style="stroke:#038048;stroke-width:1.0;"/><text fill="#000000" font-family="sans-serif" font-size="14" font-style="italic" lengthAdjust="spacing" textLength="211" x="281" y="1743.4316">WaitForCardInsertionBlockingSpi</text><line style="stroke:#D4AC0D;stroke-width:2.0;" x1="242" x2="494" y1="1753.6348" y2="1753.6348"/><line style="stroke:#D4AC0D;stroke-width:2.0;" x1="242" x2="494" y1="1761.6348" y2="1761.6348"/><ellipse cx="252" cy="1776.4453" fill="#84BE84" rx="3" ry="3" style="stroke:#038048;stroke-width:1.0;"/><text fill="#000000" font-family="sans-serif" font-size="14" lengthAdjust="spacing" textLength="175" x="261" y="1780.7422">void waitForCardInsertion ()</text><ellipse cx="252" cy="1795.0664" fill="#84BE84" rx="3" ry="3" style="stroke:#038048;stroke-width:1.0;"/><text fill="#000000" font-family="sans-serif" font-size="14" lengthAdjust="spacing" textLength="206" x="261" y="1799.3633">void stopWaitForCardInsertion ()</text></g><!--class WaitForCardInsertionNonBlockingSpi--><g id="elem_WaitForCardInsertionNonBlockingSpi"><rect codeLine="175" fill="#FEFECE" height="48" id="WaitForCardInsertionNonBlockingSpi" rx="2.5" ry="2.5" style="stroke:#D4AC0D;stroke-width:2.0;" width="280" x="228" y="1867.6348"/><ellipse cx="243" cy="1883.6348" fill="#B4A7E5" rx="11" ry="11" style="stroke:#181818;stroke-width:1.0;"/><path d="M243.9531,1880.2754 L243.9531,1886.9316 L245.6719,1886.9316 Q246.2813,1886.9316 246.5469,1887.166 Q246.8125,1887.4004 246.8125,1887.791 Q246.8125,1888.166 246.5469,1888.4004 Q246.2813,1888.6348 245.6719,1888.6348 L240.5313,1888.6348 Q239.9219,1888.6348 239.6563,1888.4004 Q239.3906,1888.166 239.3906,1887.7754 Q239.3906,1887.4004 239.6563,1887.166 Q239.9219,1886.9316 240.5313,1886.9316 L242.25,1886.9316 L242.25,1880.2754 L240.5313,1880.2754 Q239.9219,1880.2754 239.6563,1880.041 Q239.3906,1879.8066 239.3906,1879.416 Q239.3906,1879.041 239.6563,1878.8066 Q239.9219,1878.5723 240.5313,1878.5723 L245.6719,1878.5723 Q246.2813,1878.5723 246.5469,1878.8066 Q246.8125,1879.041 246.8125,1879.416 Q246.8125,1879.8066 246.5469,1880.041 Q246.2813,1880.2754 245.6719,1880.2754 L243.9531,1880.2754 Z " fill="#000000"/><ellipse cx="262" cy="1883.1348" fill="#84BE84" rx="3" ry="3" style="stroke:#038048;stroke-width:1.0;"/><text fill="#000000" font-family="sans-serif" font-size="14" font-style="italic" lengthAdjust="spacing" textLength="237" x="268" y="1889.4316">WaitForCardInsertionNonBlockingSpi</text><line style="stroke:#D4AC0D;stroke-width:2.0;" x1="229" x2="507" y1="1899.6348" y2="1899.6348"/><line style="stroke:#D4AC0D;stroke-width:2.0;" x1="229" x2="507" y1="1907.6348" y2="1907.6348"/></g><!--class WaitForCardRemovalAutonomousSpi--><g id="elem_WaitForCardRemovalAutonomousSpi"><rect codeLine="179" fill="#FEFECE" height="103.8633" id="WaitForCardRemovalAutonomousSpi" rx="2.5" ry="2.5" style="stroke:#D4AC0D;stroke-width:2.0;" width="373" x="610.5" y="1978.6348"/><ellipse cx="669.75" cy="1994.6348" fill="#B4A7E5" rx="11" ry="11" style="stroke:#181818;stroke-width:1.0;"/><path d="M670.7031,1991.2754 L670.7031,1997.9316 L672.4219,1997.9316 Q673.0313,1997.9316 673.2969,1998.166 Q673.5625,1998.4004 673.5625,1998.791 Q673.5625,1999.166 673.2969,1999.4004 Q673.0313,1999.6348 672.4219,1999.6348 L667.2813,1999.6348 Q666.6719,1999.6348 666.4063,1999.4004 Q666.1406,1999.166 666.1406,1998.7754 Q666.1406,1998.4004 666.4063,1998.166 Q666.6719,1997.9316 667.2813,1997.9316 L669,1997.9316 L669,1991.2754 L667.2813,1991.2754 Q666.6719,1991.2754 666.4063,1991.041 Q666.1406,1990.8066 666.1406,1990.416 Q666.1406,1990.041 666.4063,1989.8066 Q666.6719,1989.5723 667.2813,1989.5723 L672.4219,1989.5723 Q673.0313,1989.5723 673.2969,1989.8066 Q673.5625,1990.041 673.5625,1990.416 Q673.5625,1990.8066 673.2969,1991.041 Q673.0313,1991.2754 672.4219,1991.2754 L670.7031,1991.2754 Z " fill="#000000"/><ellipse cx="695.25" cy="1994.1348" fill="#84BE84" rx="3" ry="3" style="stroke:#038048;stroke-width:1.0;"/><text fill="#000000" font-family="sans-serif" font-size="14" font-style="italic" lengthAdjust="spacing" textLength="235" x="701.25" y="2000.4316">WaitForCardRemovalAutonomousSpi</text><line style="stroke:#D4AC0D;stroke-width:2.0;" x1="611.5" x2="982.5" y1="2010.6348" y2="2010.6348"/><line style="stroke:#D4AC0D;stroke-width:1.0;" x1="611.5" x2="982.5" y1="2018.6348" y2="2018.6348"/><ellipse cx="621.5" cy="2033.4453" fill="#84BE84" rx="3" ry="3" style="stroke:#038048;stroke-width:1.0;"/><text fill="#000000" font-family="sans-serif" font-size="14" lengthAdjust="spacing" textLength="89" x="630.5" y="2037.7422">void connect (</text><text fill="#000000" font-family="sans-serif" font-size="14" lengthAdjust="spacing" textLength="282" x="662.5" y="2056.3633">WaitForCardRemovalAutonomousReaderApi</text><text fill="#000000" font-family="sans-serif" font-size="14" lengthAdjust="spacing" textLength="283" x="694.5" y="2074.9844">waitForCardRemovalAutonomousReaderApi)</text></g><!--class WaitForCardRemovalBlockingSpi--><g id="elem_WaitForCardRemovalBlockingSpi"><rect codeLine="185" fill="#FEFECE" height="85.2422" id="WaitForCardRemovalBlockingSpi" rx="2.5" ry="2.5" style="stroke:#D4AC0D;stroke-width:2.0;" width="253" x="670.5" y="1721.6348"/><ellipse cx="685.5" cy="1737.6348" fill="#B4A7E5" rx="11" ry="11" style="stroke:#181818;stroke-width:1.0;"/><path d="M686.4531,1734.2754 L686.4531,1740.9316 L688.1719,1740.9316 Q688.7813,1740.9316 689.0469,1741.166 Q689.3125,1741.4004 689.3125,1741.791 Q689.3125,1742.166 689.0469,1742.4004 Q688.7813,1742.6348 688.1719,1742.6348 L683.0313,1742.6348 Q682.4219,1742.6348 682.1563,1742.4004 Q681.8906,1742.166 681.8906,1741.7754 Q681.8906,1741.4004 682.1563,1741.166 Q682.4219,1740.9316 683.0313,1740.9316 L684.75,1740.9316 L684.75,1734.2754 L683.0313,1734.2754 Q682.4219,1734.2754 682.1563,1734.041 Q681.8906,1733.8066 681.8906,1733.416 Q681.8906,1733.041 682.1563,1732.8066 Q682.4219,1732.5723 683.0313,1732.5723 L688.1719,1732.5723 Q688.7813,1732.5723 689.0469,1732.8066 Q689.3125,1733.041 689.3125,1733.416 Q689.3125,1733.8066 689.0469,1734.041 Q688.7813,1734.2754 688.1719,1734.2754 L686.4531,1734.2754 Z " fill="#000000"/><ellipse cx="704.5" cy="1737.1348" fill="#84BE84" rx="3" ry="3" style="stroke:#038048;stroke-width:1.0;"/><text fill="#000000" font-family="sans-serif" font-size="14" font-style="italic" lengthAdjust="spacing" textLength="210" x="710.5" y="1743.4316">WaitForCardRemovalBlockingSpi</text><line style="stroke:#D4AC0D;stroke-width:2.0;" x1="671.5" x2="922.5" y1="1753.6348" y2="1753.6348"/><line style="stroke:#D4AC0D;stroke-width:2.0;" x1="671.5" x2="922.5" y1="1761.6348" y2="1761.6348"/><ellipse cx="681.5" cy="1776.4453" fill="#84BE84" rx="3" ry="3" style="stroke:#038048;stroke-width:1.0;"/><text fill="#000000" font-family="sans-serif" font-size="14" lengthAdjust="spacing" textLength="176" x="690.5" y="1780.7422">void waitForCardRemoval ()</text><ellipse cx="681.5" cy="1795.0664" fill="#84BE84" rx="3" ry="3" style="stroke:#038048;stroke-width:1.0;"/><text fill="#000000" font-family="sans-serif" font-size="14" lengthAdjust="spacing" textLength="207" x="690.5" y="1799.3633">void stopWaitForCardRemoval ()</text></g><!--class WaitForCardRemovalNonBlockingSpi--><g id="elem_WaitForCardRemovalNonBlockingSpi"><rect codeLine="189" fill="#FEFECE" height="48" id="WaitForCardRemovalNonBlockingSpi" rx="2.5" ry="2.5" style="stroke:#D4AC0D;stroke-width:2.0;" width="279" x="657.5" y="1867.6348"/><ellipse cx="672.5" cy="1883.6348" fill="#B4A7E5" rx="11" ry="11" style="stroke:#181818;stroke-width:1.0;"/><path d="M673.4531,1880.2754 L673.4531,1886.9316 L675.1719,1886.9316 Q675.7813,1886.9316 676.0469,1887.166 Q676.3125,1887.4004 676.3125,1887.791 Q676.3125,1888.166 676.0469,1888.4004 Q675.7813,1888.6348 675.1719,1888.6348 L670.0313,1888.6348 Q669.4219,1888.6348 669.1563,1888.4004 Q668.8906,1888.166 668.8906,1887.7754 Q668.8906,1887.4004 669.1563,1887.166 Q669.4219,1886.9316 670.0313,1886.9316 L671.75,1886.9316 L671.75,1880.2754 L670.0313,1880.2754 Q669.4219,1880.2754 669.1563,1880.041 Q668.8906,1879.8066 668.8906,1879.416 Q668.8906,1879.041 669.1563,1878.8066 Q669.4219,1878.5723 670.0313,1878.5723 L675.1719,1878.5723 Q675.7813,1878.5723 676.0469,1878.8066 Q676.3125,1879.041 676.3125,1879.416 Q676.3125,1879.8066 676.0469,1880.041 Q675.7813,1880.2754 675.1719,1880.2754 L673.4531,1880.2754 Z " fill="#000000"/><ellipse cx="691.5" cy="1883.1348" fill="#84BE84" rx="3" ry="3" style="stroke:#038048;stroke-width:1.0;"/><text fill="#000000" font-family="sans-serif" font-size="14" font-style="italic" lengthAdjust="spacing" textLength="236" x="697.5" y="1889.4316">WaitForCardRemovalNonBlockingSpi</text><line style="stroke:#D4AC0D;stroke-width:2.0;" x1="658.5" x2="935.5" y1="1899.6348" y2="1899.6348"/><line style="stroke:#D4AC0D;stroke-width:2.0;" x1="658.5" x2="935.5" y1="1907.6348" y2="1907.6348"/></g><!--reverse link PluginSpi to ObservablePluginSpi--><g id="link_PluginSpi_ObservablePluginSpi"><path d="M915.822,667.0848 C940.893,693.8348 969.409,724.2548 992.89,749.3048 " fill="none" id="PluginSpi-backto-ObservablePluginSpi" style="stroke:#181818;stroke-width:2.0;"/><polygon fill="none" points="910.485,671.6348,901.914,652.2548,920.699,662.0548,910.485,671.6348" style="stroke:#181818;stroke-width:2.0;"/></g><!--reverse link PluginSpi to AutonomousObservablePluginSpi--><g id="link_PluginSpi_AutonomousObservablePluginSpi"><path d="M968.691,660.9048 C982.144,667.1948 995.78,673.2448 1009,678.6348 C1051.11,695.8048 1149.92,727.4348 1236.23,754.1848 " fill="none" id="PluginSpi-backto-AutonomousObservablePluginSpi" style="stroke:#181818;stroke-width:2.0;"/><polygon fill="none" points="965.551,667.1648,950.518,652.2348,971.583,654.5348,965.551,667.1648" style="stroke:#181818;stroke-width:2.0;"/></g><!--reverse link ReaderSpi to PoolReaderSpi--><g id="link_ReaderSpi_PoolReaderSpi"><path d="M649.939,1165.3648 C548.134,1213.1648 415.07,1275.6448 335.311,1313.0948 " fill="none" id="ReaderSpi-backto-PoolReaderSpi" style="stroke:#181818;stroke-width:2.0;"/><polygon fill="none" points="647.163,1158.9348,668.242,1156.7748,653.114,1171.6048,647.163,1158.9348" style="stroke:#181818;stroke-width:2.0;"/></g><!--reverse link ReaderSpi to ConfigurableReaderSpi--><g id="link_ReaderSpi_ConfigurableReaderSpi"><path d="M677.862,1240.7048 C665.322,1256.3948 653.104,1271.6748 642.049,1285.5148 " fill="none" id="ReaderSpi-backto-ConfigurableReaderSpi" style="stroke:#181818;stroke-width:2.0;"/><polygon fill="none" points="672.526,1236.1648,690.48,1224.9148,683.462,1244.9048,672.526,1236.1648" style="stroke:#181818;stroke-width:2.0;"/></g><!--reverse link ReaderSpi to AutonomousSelectionReaderSpi--><g id="link_ReaderSpi_AutonomousSelectionReaderSpi"><path d="M923.216,1239.6148 C945.321,1263.1048 966.624,1285.7348 983.829,1304.0148 " fill="none" id="ReaderSpi-backto-AutonomousSelectionReaderSpi" style="stroke:#181818;stroke-width:2.0;"/><polygon fill="none" points="917.989,1244.2748,909.379,1224.9148,928.183,1234.6748,917.989,1244.2748" style="stroke:#181818;stroke-width:2.0;"/></g><!--reverse link ReaderSpi to ObservableReaderSpi--><g id="link_ReaderSpi_ObservableReaderSpi"><path d="M932.203,1231.4748 C1061.73,1284.3648 1161.51,1173.7648 1255,1285.6348 C1289.77,1327.2448 1282.76,1361.0548 1255,1407.6348 C1224.52,1458.7728 1165.17,1490.3368 1114.13,1509.0198 " fill="none" id="ReaderSpi-backto-ObservableReaderSpi" style="stroke:#181818;stroke-width:2.0;"/><polygon fill="none" points="928.912,1237.6648,913.726,1222.8848,934.813,1224.9648,928.912,1237.6648" style="stroke:#181818;stroke-width:2.0;"/></g><!--reverse link ApiProperties to PluginFactorySpi--><g id="link_ApiProperties_PluginFactorySpi"><path codeLine="200" d="M662.732,179.9348 C689.126,219.2048 731.359,282.0448 762.595,328.5148 " fill="none" id="ApiProperties-backto-PluginFactorySpi" style="stroke:#3498DB;stroke-width:2.0;stroke-dasharray:7.0,7.0;"/><polygon fill="#3498DB" points="659.911,175.7348,661.6289,185.4327,662.7075,179.8796,668.2606,180.9582,659.911,175.7348" style="stroke:#3498DB;stroke-width:2.0;"/><text fill="#000000" font-family="sans-serif" font-size="13" lengthAdjust="spacing" textLength="40" x="741" y="246.6631">provide</text><polygon fill="#000000" points="724.2109,254.4215,726.8173,263.5679,731.6956,260.2891,724.2109,254.4215" style="stroke:#000000;stroke-width:1.0;"/><text fill="#000000" font-family="sans-serif" font-size="13" lengthAdjust="spacing" textLength="65" x="735" y="263.9541">API version</text></g><!--link PluginFactorySpi to PluginSpi--><g id="link_PluginFactorySpi_PluginSpi"><path codeLine="201" d="M817.683,450.6648 C824.804,479.7748 833.307,514.5348 840.294,543.1048 " fill="none" id="PluginFactorySpi-to-PluginSpi" style="stroke:#3498DB;stroke-width:2.0;stroke-dasharray:7.0,7.0;"/><polygon fill="#3498DB" points="841.491,547.9948,843.2425,538.3029,840.3052,543.1374,835.4707,540.2001,841.491,547.9948" style="stroke:#3498DB;stroke-width:2.0;"/><polygon fill="#000000" points="835.188,495.1371,835.8937,485.6527,830.1841,487.0493,835.188,495.1371" style="stroke:#000000;stroke-width:1.0;"/><text fill="#000000" font-family="sans-serif" font-size="13" lengthAdjust="spacing" textLength="40" x="843" y="495.6631">provide</text></g><!--link PluginSpi to ReaderSpi--><g id="link_PluginSpi_ReaderSpi"><path codeLine="203" d="M804.393,652.2048 C781.893,678.9348 757.731,713.5548 746,749.6348 C723.402,819.1248 731.919,899.9148 747.326,966.0948 " fill="none" id="PluginSpi-to-ReaderSpi" style="stroke:#3498DB;stroke-width:2.0;stroke-dasharray:7.0,7.0;"/><polygon fill="#3498DB" points="748.544,971.2348,750.3526,961.5534,747.3869,966.3705,742.5697,963.4048,748.544,971.2348" style="stroke:#3498DB;stroke-width:2.0;"/><polygon fill="#000000" points="750.1056,806.6996,754.6151,798.3261,748.832,797.2747,750.1056,806.6996" style="stroke:#000000;stroke-width:1.0;"/><text fill="#000000" font-family="sans-serif" font-size="13" lengthAdjust="spacing" textLength="40" x="760" y="807.1631">provide</text></g><!--reverse link ApiProperties to PoolPluginFactorySpi--><g id="link_ApiProperties_PoolPluginFactorySpi"><path codeLine="205" d="M611.672,180.1048 C600.539,195.8948 587.51,214.5748 576,231.6348 C554.636,263.2948 531.396,298.9648 512.502,328.2948 " fill="none" id="ApiProperties-backto-PoolPluginFactorySpi" style="stroke:#3498DB;stroke-width:2.0;stroke-dasharray:7.0,7.0;"/><polygon fill="#3498DB" points="614.759,175.7248,606.2988,180.767,611.8738,179.8083,612.8325,185.3834,614.759,175.7248" style="stroke:#3498DB;stroke-width:2.0;"/><text fill="#000000" font-family="sans-serif" font-size="13" lengthAdjust="spacing" textLength="40" x="596" y="246.6631">provide</text><polygon fill="#000000" points="584.7808,254.4159,577.3078,260.2985,582.1927,263.5676,584.7808,254.4159" style="stroke:#000000;stroke-width:1.0;"/><text fill="#000000" font-family="sans-serif" font-size="13" lengthAdjust="spacing" textLength="65" x="590" y="263.9541">API version</text></g><!--link PoolPluginFactorySpi to PoolPluginSpi--><g id="link_PoolPluginFactorySpi_PoolPluginSpi"><path codeLine="206" d="M468.818,450.6648 C466.83,473.6848 464.537,500.2448 462.445,524.4748 " fill="none" id="PoolPluginFactorySpi-to-PoolPluginSpi" style="stroke:#3498DB;stroke-width:2.0;stroke-dasharray:7.0,7.0;"/><polygon fill="#3498DB" points="462.002,529.6048,466.7587,520.9808,462.4306,524.6232,458.7882,520.295,462.002,529.6048" style="stroke:#3498DB;stroke-width:2.0;"/><polygon fill="#000000" points="471.5699,495.2617,475.276,486.503,469.4199,485.9974,471.5699,495.2617" style="stroke:#000000;stroke-width:1.0;"/><text fill="#000000" font-family="sans-serif" font-size="13" lengthAdjust="spacing" textLength="40" x="481" y="495.6631">provide</text></g><!--link PoolPluginSpi to PoolReaderSpi--><g id="link_PoolPluginSpi_PoolReaderSpi"><path codeLine="208" d="M438.211,670.8448 C398.942,824.7148 305.935,1189.1548 275.687,1307.6748 " fill="none" id="PoolPluginSpi-to-PoolReaderSpi" style="stroke:#3498DB;stroke-width:2.0;stroke-dasharray:7.0,7.0;"/><polygon fill="#3498DB" points="274.38,1312.7948,280.4911,1305.0712,275.6226,1307.9516,272.7421,1303.0831,274.38,1312.7948" style="stroke:#3498DB;stroke-width:2.0;"/><polygon fill="#000000" points="387.7636,898.125,392.8479,890.0876,387.1526,888.6341,387.7636,898.125" style="stroke:#000000;stroke-width:1.0;"/><text fill="#000000" font-family="sans-serif" font-size="13" lengthAdjust="spacing" textLength="40" x="398" y="898.6631">provide</text></g><!--reverse link AutonomousObservablePluginApi to AutonomousObservablePluginSpi--><g id="link_AutonomousObservablePluginApi_AutonomousObservablePluginSpi"><path codeLine="210" d="M1682.14,645.1048 C1624.03,675.9348 1546.17,717.2448 1485.3,749.5448 " fill="none" id="AutonomousObservablePluginApi-backto-AutonomousObservablePluginSpi" style="stroke:#27AE60;stroke-width:2.0;stroke-dasharray:7.0,7.0;"/><polygon fill="#27AE60" points="1686.64,642.7148,1676.8151,643.4008,1682.2235,645.0588,1680.5655,650.4672,1686.64,642.7148" style="stroke:#27AE60;stroke-width:2.0;"/><polygon fill="#000000" points="1586.4168,707.9368,1577.0493,709.5801,1579.8042,714.7723,1586.4168,707.9368" style="stroke:#000000;stroke-width:1.0;"/><text fill="#000000" font-family="sans-serif" font-size="13" lengthAdjust="spacing" textLength="21" x="1591" y="715.6631">use</text></g><!--link WaitForCardInsertionAutonomousSpi to WaitForCardInsertionAutonomousReaderApi--><g id="link_WaitForCardInsertionAutonomousSpi_WaitForCardInsertionAutonomousReaderApi"><path codeLine="212" d="M368,2082.9188 C368,2141.0528 368,2234.4568 368,2286.3268 " fill="none" id="WaitForCardInsertionAutonomousSpi-to-WaitForCardInsertionAutonomousReaderApi" style="stroke:#27AE60;stroke-width:2.0;stroke-dasharray:7.0,7.0;"/><polygon fill="#27AE60" points="368,2291.5215,372,2282.5215,368,2286.5215,364,2282.5215,368,2291.5215" style="stroke:#27AE60;stroke-width:2.0;"/><polygon fill="#000000" points="373,2257.2803,375.9389,2248.2352,370.0611,2248.2352,373,2257.2803" style="stroke:#000000;stroke-width:1.0;"/><text fill="#000000" font-family="sans-serif" font-size="13" lengthAdjust="spacing" textLength="21" x="382" y="2257.6631">use</text></g><!--link WaitForCardRemovalAutonomousSpi to WaitForCardRemovalAutonomousReaderApi--><g id="link_WaitForCardRemovalAutonomousSpi_WaitForCardRemovalAutonomousReaderApi"><path codeLine="214" d="M797,2082.9188 C797,2141.0528 797,2234.4568 797,2286.3268 " fill="none" id="WaitForCardRemovalAutonomousSpi-to-WaitForCardRemovalAutonomousReaderApi" style="stroke:#27AE60;stroke-width:2.0;stroke-dasharray:7.0,7.0;"/><polygon fill="#27AE60" points="797,2291.5215,801,2282.5215,797,2286.5215,793,2282.5215,797,2291.5215" style="stroke:#27AE60;stroke-width:2.0;"/><polygon fill="#000000" points="802,2257.2803,804.9389,2248.2352,799.0611,2248.2352,802,2257.2803" style="stroke:#000000;stroke-width:1.0;"/><text fill="#000000" font-family="sans-serif" font-size="13" lengthAdjust="spacing" textLength="21" x="811" y="2257.6631">use</text></g><!--link ObservablePluginSpi to reader--><!--link AutonomousSelectionReaderSpi to ObservableReaderSpi--><!--link ObservableReaderSpi to state--><!--link WaitForCardInsertionBlockingSpi to WaitForCardInsertionNonBlockingSpi--><!--link WaitForCardInsertionNonBlockingSpi to WaitForCardInsertionAutonomousSpi--><!--link WaitForCardRemovalBlockingDuringProcessingSpi to DontWaitForCardRemovalDuringProcessingSpi--><!--link WaitForCardRemovalBlockingSpi to WaitForCardRemovalNonBlockingSpi--><!--link WaitForCardRemovalNonBlockingSpi to WaitForCardRemovalAutonomousSpi--><!--SRC=[pLfRKziu57xFhz2MXqBRX3Q4KXZAZEDBbsaB3A7TwImxEy8MYHR7yaWoRAQJ_xv7liLsv4jI7fO79f6-yvsBZewEx4WgVT93yFUPB4AVe3vwY3_qGp-Qqg3_3tx4VHnIc1WEtWrUeztXs-51_-se_swuroE1XsHCqNk9Fdv4Dx_RNstu05zD5laauW9H8I8Ya4VG2Pf96OgJ_VsPdFikynbtcKV4m6Np_Nk-B_6TJt3KzqZVJQGrG_1Hq6a0zc6vt_lD8_Sq8CZy-zEr_UCTSZuunyvnPNY8dA5pu8mgmmV8FhIFx2fwXAmZQsnPbU53P1gcOmqhm-_Hs38FpAF2y9VpYy_eO7JymHeNHhzDR3GyCkptRrMi-dqqaGiVuY9dM2AF1IybUcBy0JrHEKC1UKAFX0lA0iJk4VWQo6ZkWrXFFD0Wn1pFaP244oON8J76Z7k4cogYQCSujapBqGBFIy3no3Yo3xL0iyneMU_6GotGBW7jyV41g8xzioyiPMz1olIn40d-PaRTXu08WOgq1kVigJW5J3-8xxEdDHRiFamvYm8lrUpOZctQUcKfn1ePvbiBAA-9ry9tUig9TtO6j9PjsMO3ROwqZqQG1xqPXKJF1bTX0grN4OTzrQeuZ66nxf5jEaUDkbVW3_PeP5YP-doyPC6T7xNhLw3Odx5pw8mRjMVGDDTJtUbeIVCdJaZGgdggKB7kO-V8TXfrvzXqJwNAi-6gzaKNvOjOjm5vPBVfZg53yy0-BAfUb3KdDT6ylBYnBsxYgXY2LZmbw0NZqm5nVHeACaWABXH1JWP9rNs1i42gwFwCI_DhLvc0Nhnw1RK4-wzUeQiOPeJqYhEGS4c9Y6LA8wbqpF1JI2ofkqGhZedaD9YYx_RrvFpo8eOk4tKq01_kiKkG4KaMi3cBnEMT8FnHLUDSTv7_aL4FiU2Qu3XCGK1SIJoqEo7oD1cSXFGCyVYZsAiHjAXmoxA9aPdW1PwJL7ZDr3ymbGxZ9kRUUI1K15YmCZ_Xrnkz4b5Qs-cloPmzOhyxUIomnfqkwkcf_QzBGcNksTbjK5tZyyjyEbxXjT6YplN9tNIL8Mu24czl0-oR7Al-RkND38gpIW3auaYGZNn98bJrPMsqwClwPBqlhTZdz2LEbuedbR6Y7zMfUYzQaC_fmmqM3oOENE8Jh-o9TgReZnwWzIen9gjvehG_99iIEIEyC5JPSLUC-KcIEjYLZ2yc9O9S8jKCT7bb-fwsJhjxJN2JpUUiEtnbZof3Ml0AecmjoLJnorgt_qykjxXRSdL3DqkXQlInLl-4gP9TF2O0dTI2Jt2qXzVa7ivYI5MX5J-DRo0dSR-YpCdFgTFzUEOCOMWzNIn9CfCdETUeqF379m27VO95pf3hI4dWKvqa2xu5d4ofQYWsp9vV26dvl1O4StTcF6BggqgJpEYZkO7Dgqy5owiDXlA1_2lXXYbglLBYofslBA2mNS0vS-7wn8eubfhiVbrC5QrhSOEn9hPQj4H8cmvATA_PnVfkgekpS9TQ3tZQBg7TjGMvbOtDcmP_At6JXCwvhBOd8QYlvQi8TahBkkmAIN0rMmZgOj-SOV3Shqz5rsU2T47VmTOdE41KLD2Ne4vlJIRYpeZxe8xjAqw4gWAjHyWJuPU1XINMcxAGvC-_aEGu47CgZT2Bq6uwYE7BUT1eF_JT4iuDNzsTTv-rhBoehPL9KreSoHEvST6BX9Tt_wWSXW1De5ggvdyonrogm7Qs47o_frFO-FbUxcnA8G4uammCcqHXo9BhG6cFP_DriONWqqSuBpBSXk8UsPwWa0KHXnD9RaHH6zPL3KcMXcPNjUxHJT9NxTrqNy4roW1liyJsxjMsVuFKLp2VgIpcpFyAVMRZtlx2fWrRk-nHLgTONjPqfkeEetLluLu-W5vsaCHpqEHySTTD9AIqHMGIHDt-BADPs0XUhetaVJRSz4cDCHacv0ow8g7IGWzilVsEeJDw07auQ-7_LSvN7uYoYqzhZ5MckX2LUGG4wezVubfs2O05ITckfjbvlQ9buqBHx576nkkaUGZIlZQL7gDczzNs7EizHSUdCXsORkLJDwvVN6cTnLcoRv7SESTMwTn9UcktBhfwjatcycIBR5jV_YzPM_-mRzEShMTwlgMj5EVjY_6l5D_dpDMKyjapTTbuDLtsbkhXlI44SsbybHIztjg3cK4K3iugZzntqjT_9-g8VQGUkGsCg_FyNTwfXWKuLbU-DNbqbcdEmAk6Gm_MFJRRpbGjapAtzEocnOgYK8lfpVVZr8V6Dn8xoNlM4nI9cB7zF5IcTNrrqC2khLeLxeRt1bNc-CNH5-F7vRValP4k7lq_PzJpIF1NFstjYm7KTEi5lAQzBUhGoiHjfJwYnQrPa6W_SdeTJgKMmbB4TKlIrAWMk3itU4qwwktLrh5UQw5h9Aku7kVCvER75xlqgX4dwPNyFEBdiZYkhZ7Pt50pbrvnCiX1FMHGk5ZjP3-Zw88U9BULdUmt5jrb1glMU2VxASO6qeKRq3RYMNTJbFqF]--></g></svg>